<?xml version="1.0" encoding="UTF-8"?>
<svg enable-background="new 0 0 256.035 253.283" viewBox="0 0 256.035 253.283" xmlns="http://www.w3.org/2000/svg">
 <path d="m100.285,20.479c.612,2.618-2.381,3.167-1.829.303 .359-.351 1.078-.345 1.829-.303z" fill-rule="evenodd"/>
 <path d="m92.356 22.613c2.681 1.697-2.47 4.217 0 0" fill-rule="evenodd"/>
 <path d="m96.321,23.221c.973,5.031-6.269.393 0,0" fill-rule="evenodd"/>
 <path d="m156.099,27.798c.916.862.55,2.841-.954,2.624-2.142-.309-.604-2.743.954-2.624" fill-rule="evenodd"/>
 <path d="m121.329,29.017c1.225,2.991-1.807,2.051-1.829,2.439-1.044-1.296.398-2.85 1.829-2.439" fill-rule="evenodd"/>
 <path d="m85.646,29.932c-.25.856.974,2.398-1.061,1.976-1.793-.372-.086-2.036 1.061-1.976" fill-rule="evenodd"/>
 <path d="m160.671,30.237c-.215,1.53.312,2.729-1.854,2.304-2.285-.447.954-2.245 1.854-2.304" fill-rule="evenodd"/>
 <path d="m116.755,30.543c2.417.032 1.095,2.469 0,3.048-1.018-.524-.576-2.408 0-3.048z" fill-rule="evenodd"/>
 <path d="m154.267,31.761c.254.861-.429.792-.305,1.527-3.932.702-1.988-3.698.305-1.527z" fill-rule="evenodd"/>
 <path d="m70.397,31.761c2.863,0 1.146,3.065.364,2.623-.71-.403-.307-1.983-.364-2.623" fill-rule="evenodd"/>
 <path d="m157.62 32.982c1.056 1.727-1.092 3.049-2.594 2.26-1.551-0.815 1.881-2.34 2.594-2.26" fill-rule="evenodd"/>
 <path d="m74.667,35.422c-.939-.213-.587-.213-1.525,0-2.037-2.156 2.815-2.849 1.525,0z" fill-rule="evenodd"/>
 <path d="m162.8 35.422c-4.702-0.297 1.525-3.717 0 0" fill-rule="evenodd"/>
 <path d="m81.681,35.117c-.857,1.437-.551,5.722-3.354,4.269 .373-1.043 1.717-5.977 3.354-4.269" fill-rule="evenodd"/>
 <path d="m87.171,36.946c.057-.001-1.948.703-1.831.305-1.671-1.543 1.758-3.497 1.831-.305" fill-rule="evenodd"/>
 <path d="m114.01,35.117c.78-.092.802.701.913,1.218 3.742-2.956 1.592,4.161.309.611-.825.824-1.806,2.152-2.146.139-.121-.717.761-1.255.924-1.968" fill-rule="evenodd"/>
 <path d="m68.566,36.335c0,.895-.091,2.789-1.524,2.44 .273-.997-1.013-.352-.916-1.219-.162-1.442 1.535-1.277 2.44-1.221" fill-rule="evenodd"/>
 <path d="m84.121,36.335c1.306,3.175-2.44,2.916-2.44.305 .551.518 1.763-.538 2.44-.305" fill-rule="evenodd"/>
 <path d="m152.74 36.335c1.257 8e-3 3.46 1.068 1.502 2.236-1.98 1.18-1.383-1.115-1.502-2.236" fill-rule="evenodd"/>
 <path d="m157.317,36.641c.46-.98 4.094-.558 2.778,1.178-1.371,1.81-2.332-1.122-2.778-1.178" fill-rule="evenodd"/>
 <path d="m63.383,36.946c2.201-.117 2.282,1.986.603,2.987-1.134.676-.609-2.564-.603-2.987" fill-rule="evenodd"/>
 <path d="m69.482,37.251c1.38,0 2.217.352 1.942,1.903-.233,1.315-1.376.211-1.333,1.147-1.06-.465-.577-2.204-.609-3.05" fill-rule="evenodd"/>
 <path d="m110.352,39.691c0,1.167.485,1.749-.807,1.844-.785.059-1.88.259-2.55-.321-.073-1.9 1.975-2.389 3.357-1.523" fill-rule="evenodd"/>
 <path d="m153.962,39.081c1.106,0 2.952-.225 2.439,1.526-1.562,1.669-2.439-.216-2.439-1.526" fill-rule="evenodd"/>
 <path d="m82.292,42.437c-2.097,1.236-3.374-1.924-.305-2.135-.178.99.207,1.417.305,2.135z" fill-rule="evenodd"/>
 <path d="m66.737,40.912c2.236.609 2.359,2.803-.265,2.734-1.241-.032.25-2.215.265-2.734" fill-rule="evenodd"/>
 <path d="m150.301,40.912c2.164,2.554-2.559,3.914-2.745.914 .797-.425 1.323-1.12 2.745-.914z" fill-rule="evenodd"/>
 <path d="m62.467,41.826c-.214,2.539-2.764,2.169-2.745,0 .988-.589 1.758-.589 2.745,0z" fill-rule="evenodd"/>
 <path d="m63.383,41.521c1.423-.18 2.116,1.301 1.473,2.462-.53.955-3.171-1.36-1.473-2.462" fill-rule="evenodd"/>
 <path d="m110.96,41.521c.824-.104 3.46.448 2.07,1.914-1.801,1.898-2.07-1.1-2.07-1.914" fill-rule="evenodd"/>
 <path d="m108.215,44.266c3.187.758-3.888,4.882-2.746.305 .957-.045 1.939.526 2.746-.305" fill-rule="evenodd"/>
 <path d="m76.802,44.571h1.83c.227.605.305,1.863-.266,2.112-2.573,1.124-1.282-.808-1.564-2.112" fill-rule="evenodd"/>
 <path d="m64.297,45.181c.911.288 1.044,1.366 1.22,2.135 .378-.443 1.102-2.339 1.974-1.888 .84.435 1.545,1.97.972,2.837-1.917,2.901-7.514-1.568-4.166-3.084" fill-rule="evenodd"/>
 <path d="m62.162,46.4c.184,1.223-1.031,3.107-2.211,2.359-1.863-1.18.642-3.154 2.211-2.359" fill-rule="evenodd"/>
 <path d="m80.156,46.095c1.833-.533 1.882,2.078.923,2.969-.751.697-1.035-2.568-.923-2.969" fill-rule="evenodd"/>
 <path d="m110.044,46.4c1.765-.251 2.694.674 2.442,2.44-2.337,1.192-2.442-.554-2.442-2.44" fill-rule="evenodd"/>
 <path d="m115.534,46.4c.68,1.318-.112,2.636-1.83,2.44-.672-1.311-.253-2.998 1.83-2.44z" fill-rule="evenodd"/>
 <path d="m175.617,48.231c.521,2.594-1.39,5.048-.61,7.625-1.161,0-3.819-.792-3.337-2.614 .309-1.163 2.083-1.196 2.184-2.796 .074-1.192-2.683-.193-3.142-1.42-.688-1.84 4.045-1.608 4.905-.795" fill-rule="evenodd"/>
 <path d="m146.337,48.231c1.766,0 2.707.307 1.829,2.44-1.561.287-2.519-1.029-1.829-2.44" fill-rule="evenodd"/>
 <path d="m106.689,48.84c1.817-.362 2.128,1.251 1.525,2.439-1.895.234-1.884-1.154-1.525-2.439z" fill-rule="evenodd"/>
 <path d="m56.368,49.145c1.503,0 2.736.229 1.812,2.154-.582,1.213-2.337-.947-1.812-2.154" fill-rule="evenodd"/>
 <path d="m76.191,49.145c1.948,0 2.008,3.085.615,3.05-1.603-.04-.651-2.437-.615-3.05" fill-rule="evenodd"/>
 <path d="m168.295,49.755c2.302-.142 1.641,3.075 0,3.356-.316-1.078-.953-2.362 0-3.356" fill-rule="evenodd"/>
 <path d="m110.654,50.366c.826.521 1.312,3.339-.227,2.836-2.361-.771.214-1.854.227-2.836" fill-rule="evenodd"/>
 <path d="m113.094,50.671c1.146-.002 2.247,1.749 1.021,2.49-.633.382-1.585-.388-1.943-.787-.369-.41.881-1.142.922-1.703" fill-rule="evenodd"/>
 <path d="m56.062 54.024h-1.829c-1.732-3.427 3.476-3.151 1.829 0z" fill-rule="evenodd"/>
 <path d="m60.638 51.279c1.886 0 2.202 1.704 1.07 2.955-1.955 2.159-1.07-2.923-1.07-2.955" fill-rule="evenodd"/>
 <path d="m65.518,51.279c.458.497.458,2.251 0,2.745-2.382.757-2.576-3.551 0-2.745z" fill-rule="evenodd"/>
 <path d="m58.502,52.195c1.316.673 1.107,3.687-.434,2.798-.776-.448-.878-1.396-.786-2.188 .404-.758.686.218 1.153-.104l.067-.506" fill-rule="evenodd"/>
 <path d="m107.605,53.417c.321.603.539,2.306-.622,2.249-2.046-.101-1.077-2.83.622-2.249" fill-rule="evenodd"/>
 <path d="m78.021,54.024c-.252,1.095.688,1.477 0,2.137-2.232.343-3.046-2.742 0-2.137z" fill-rule="evenodd"/>
 <path d="m55.148,55.246c1.457,0 1.353,1.396 1.22,2.44-.809-.399-1.067.233-1.831.305l-.304-1.829c.348-.401 1.121-.11.915-.916" fill-rule="evenodd"/>
 <path d="m139.018,55.246c1.047-.135 2.171-.034 3.051.611 .08.981-1.183.619-1.219,1.523-.473-1.463-1.832-.125-1.832-2.134" fill-rule="evenodd"/>
 <path d="m109.13,56.162c1.85-.428 2.339,2.129.743,2.499-1.12.259-1.208-1.953-.743-2.499" fill-rule="evenodd"/>
 <path d="m113.094,56.77c.378.715.378,1.427 0,2.135-2.579.026-2.189-2.562 0-2.135" fill-rule="evenodd"/>
 <path d="m57.587,57.38c1.604-.342 2.293,1.375 1.525,2.44-1.79.337-2.054-1.323-1.525-2.44z" fill-rule="evenodd"/>
 <path d="m114.923,57.991c2.989-.458-.089,2.806 0,2.44-1.838.281.071-2.278 0-2.44" fill-rule="evenodd"/>
 <path d="m135.052,57.991c2.6-.762-.913,5.906-.913.305 .712.513 1.015.411.913-.305" fill-rule="evenodd"/>
 <path d="m54.537,59.515c1.167.12 1.688,2.337.408,2.659-3.26.817-.438-2.19-.408-2.659" fill-rule="evenodd"/>
 <path d="m110.352,60.736c1.464.178 2.688.723 2.438,2.44-2.556,0-2.438.115-2.438-2.44" fill-rule="evenodd"/>
 <path d="m51.488,62.26c.23,1.554-.224,2.42-1.525,2.439-1.034-1.518-.189-3.981 1.525-2.439z" fill-rule="evenodd"/>
 <path d="m114.62,62.26c1.086.736 1.159,1.87.914,3.05-1.528.095-2.689-1.329-1.83-2.745-.156.257 1.84.558.916-.305" fill-rule="evenodd"/>
 <path d="m47.218 64.089c1.195 0 1.935 1.04 1.252 2.102-1.281 1.992-1.221-1.905-1.252-2.102" fill-rule="evenodd"/>
 <path d="m53.623,64.089c5.11,0-.362,4.037 0,0" fill-rule="evenodd"/>
 <path d="m50.877,65.92c5.74-.45-.537,5.687 0,0" fill-rule="evenodd"/>
 <path d="m154.572,68.36c-.168.217-.377,1.25-.706,1.351-.949.29-1.824-.089-2.579.812-1.075,1.282.561,4.559 1.556,3.32 .563-.701-.382-2.292 1.258-1.86 2.873.756-.009,3.224-1.055,2.17 .913,3.878-4.462.349-5.392-.796-2.882-3.547 4.373-7.145 6.918-4.997" fill-rule="evenodd"/>
 <path d="m47.523,68.055c.745,0 2.079-.147 2.217.903 .226,1.716-1.698.353-1.303,1.536-.708-.585-1.407-1.46-.914-2.439" fill-rule="evenodd"/>
 <path d="m53.317 70.495c1.534 4.319-5.846-1.255 0 0" fill-rule="evenodd"/>
 <path d="m48.438,72.019c1.597,0 2.838,1.435.916,2.44-1.301-.048-1.316-1.566-.916-2.44" fill-rule="evenodd"/>
 <path d="m175.007,75.374c.973.154 2.155,2.43.565,2.447-1.432.015-3.241.268-3.569,1.969-.136.708-1.329,2.635-2.219,1.641-1.59-1.778 1.103-3.621.953-5.446 1.008,1.162 3.046-1.772 3.658,0l.612-.611" fill-rule="evenodd"/>
 <path d="m90.525,79.338c1.212-.094 1.651.586 1.525,1.832-1.331,1.201-2.29-.271-1.525-1.832z" fill-rule="evenodd"/>
 <path d="m69.482,79.948c4.59.568-1.989,4.832 0,0" fill-rule="evenodd"/>
 <path d="m175.007,79.948c2.364-.906.233,3.274-.856,3.802-.957.463-3.345-.366-2.019-1.47 .914-.76 2.577-.971 2.875-2.332" fill-rule="evenodd"/>
 <path d="m75.276,81.778c-.427,1.088-2.134.984-2.134-.304 0-1.756 2.112-1.123 2.134.304" fill-rule="evenodd"/>
 <path d="m82.901,80.864c2.172,5.284-5.318-.447 0,0" fill-rule="evenodd"/>
 <path d="m77.411,81.778c.979-.278.599,1.119 1.525.916 .132.854-.869.923-.609,1.829l-.708-.414c-.821.385-1.168.09-1.042-.885-.393-.697.638-.94.834-1.446" fill-rule="evenodd"/>
 <path d="m95.405,82.693c.15,1.291-.539,1.98-1.83,1.829 .227-.953-.699-3.635 1.83-1.829" fill-rule="evenodd"/>
 <path d="m67.347,82.693c.334,2.209-2.008,2.23-2.135,0 .776.051 1.388-.315 2.135,0" fill-rule="evenodd"/>
 <path d="m85.341,82.388c.876.923 2.731-1 2.29,1.829-.115.737-1.731.353-2.094.172-.593-.294-.196-1.575-.196-2.001" fill-rule="evenodd"/>
 <path d="m99.37,82.693c-.123.668-.197,1.907-1.068,1.822-.44-.043-1.31-.176-1.066.618-.818-.188-.958-1.069-.953-1.758 .011-1.619 2.055-.675 3.087-.682" fill-rule="evenodd"/>
 <path d="m71.312,83.915c.181,2.023-1.234,1.512-2.44,1.524-.425-1.531 1.309-3.012 2.44-1.524" fill-rule="evenodd"/>
 <path d="m101.506,83.304c1.311-.203 2.346.451 2.439,1.829-.8-.192-.726.803-1.525.611-.47-.952-1.431-1.216-.914-2.44" fill-rule="evenodd"/>
 <path d="m74.971,83.609c1.587,1.48-.634,2.175-.609,2.745-1.619-.885-1.778-3.31.609-2.745" fill-rule="evenodd"/>
 <path d="m91.44,83.915c.461,1.72-1.393,2.273-2.44,1.524-.453-1.713 1.585-2.083 2.44-1.524z" fill-rule="evenodd"/>
 <path d="m55.148,83.915c1.99.097.911,2.236 2.405-.096 .596-.929 1.511,1.39 2.169,1.314-.196.72-.96.259-.609,1.221-1.519-.113-1.973-.944-3.038-.079-2.008,1.633-1.284-1.561-.927-2.36" fill-rule="evenodd"/>
 <path d="m83.512,85.438c.269,1.592-1.573,2.176-2.589,1.143-1.344-1.366 1.973-1.447 2.589-1.143" fill-rule="evenodd"/>
 <path d="m62.467,85.438c1.236.792 1.321,3.845-.483,2.505-1.919-1.424.151-1.577.483-2.505" fill-rule="evenodd"/>
 <path d="m65.518,85.438c1.835-.412 1.736,1.109 2.745,1.524-.9,2.028-3.836.184-2.745-1.524z" fill-rule="evenodd"/>
 <path d="m102.726,88.794c-1.071-.272-1.004.058-1.831-.61-.076-2.981 3.451-2.122 1.831.61z" fill-rule="evenodd"/>
 <path d="m105.775,86.049c.44.264 2.176,2.477.935,2.669-2.783.432-1.066-1.671-.935-2.669" fill-rule="evenodd"/>
 <path d="m51.183,86.66c.683.404 2.285,1.868.695,2.326-2.483.714-.755-1.69-.695-2.326" fill-rule="evenodd"/>
 <path d="m93.576,86.66c1.284.968 1.352,1.503.915,3.048-2.835.653-.958-1.953-.915-3.048" fill-rule="evenodd"/>
 <path d="m99.37,86.66c.279.79.381,1.603.305,2.44-3.164.396-3.102-2.189-.305-2.44" fill-rule="evenodd"/>
 <path d="m90.525,87.268c.341.359 1.442,1.922.641,2.356-1.645.89-1.604-.959-1.86-1.745 .408-.053 1.529.314 1.219-.611" fill-rule="evenodd"/>
 <path d="m108.215,87.268c2.246-.422 2.966,3.132.305,2.745-.231-.792-.943-2.018-.305-2.745z" fill-rule="evenodd"/>
 <path d="m59.722,89.1c-.026,1-1.991.716-2.44.303 0-2.469 1.599-2.052 2.44-.303" fill-rule="evenodd"/>
 <path d="m85.646,87.573c.707.511 2.951.826 1.22,2.439-1.387.001-2.985-1.11-1.22-2.439" fill-rule="evenodd"/>
 <path d="m47.829,87.878c1.372.448 2.774,2.625.349,2.739-1.448.068-1.141-2.17-.349-2.739" fill-rule="evenodd"/>
 <path d="m68.872,87.878c5.11,0-.362,4.035 0,0" fill-rule="evenodd"/>
 <path d="m73.447,87.878c4.475.014.013,4.394 0,0" fill-rule="evenodd"/>
 <path d="m78.936,88.184c.155,1.68-.5,2.549-2.134,2.44-.571-1.09.479-3.639 2.134-2.44z" fill-rule="evenodd"/>
 <path d="m113.094,88.184c.225.56.857,3.357-.158,3.513-2.409.367-1.558-2.893.158-3.513" fill-rule="evenodd"/>
 <path d="m56.673,91.842c-1.519,0-2.756.277-2.195-1.763 .486-1.767 2.463.476 2.195,1.763" fill-rule="evenodd"/>
 <path d="m67.347,91.842c-1.762.1-1.829-.047-1.829-1.829 1.46-.486 2.317.367 1.829,1.829" fill-rule="evenodd"/>
 <path d="m82.901,90.624c-.02.63.082,1.24.305,1.829-.761-.15-1.065.155-.915.916-2.889-.656-1.432-3.544.61-2.745" fill-rule="evenodd"/>
 <path d="m103.03,90.624c2.618,5.161-5.54-.292 0,0" fill-rule="evenodd"/>
 <path d="m52.098,90.929c.715,1.092.341,3.264-1.524,2.745-.756-1.134-.133-3.056 1.524-2.745z" fill-rule="evenodd"/>
 <path d="m58.198,90.929c1.143.318 1.952,2.128 1.31,3.182-.818,1.339-2.121-1.905-1.31-3.182" fill-rule="evenodd"/>
 <path d="m63.687,91.234c-.129.545.398,2.524-.639,2.399-2.531-.304-1.52-2.749.639-2.399" fill-rule="evenodd"/>
 <path d="m69.482,90.929c1.528-.046 1.749,1.68 1.22,2.745-1.771,0-2.479-1.182-1.22-2.745" fill-rule="evenodd"/>
 <path d="m90.831,93.368c-.237.688-1.83-.239-1.525.916-3.01-2.924 2.265-4.144 1.525-.916" fill-rule="evenodd"/>
 <path d="m94.185,91.234c-.014,2.396.693,2.546-1.525,3.05-.349-1.303-.359-3.224 1.525-3.05" fill-rule="evenodd"/>
 <path d="m109.13,91.234c1.384-.371 1.331,1.652.671,2.297-1.415,1.381-1.252-1.618-.671-2.297" fill-rule="evenodd"/>
 <path d="m73.447,91.842c1.733-.191 2.645,2.177.643,2.591-1.265.262-.893-2.027-.643-2.591" fill-rule="evenodd"/>
 <path d="m99.675,91.842c1.194,2.915-1.308,2.902-2.44.611 .998.129 1.391-.932 2.44-.611" fill-rule="evenodd"/>
 <path d="m47.523,92.453c1.797-.427 2.472,1.333 1.83,2.745-1.711.443-2.717-1.354-1.83-2.745" fill-rule="evenodd"/>
 <path d="m76.496,92.453c1.351,0 1.739.072 1.816,1.49 .072,1.323-2.562.308-1.816-1.49" fill-rule="evenodd"/>
 <path d="m105.166,92.453c1.15.007 3.472.45 1.829,2.134-1.424.122-1.965-.83-1.829-2.134" fill-rule="evenodd"/>
 <path d="m85.036,92.758c2.055,0 2.136-.246 2.136,1.829-2.055,0-2.136.246-2.136-1.829" fill-rule="evenodd"/>
 <path d="m65.518,93.368c1.78,0 3.104,2.036 1.04,3.017-1.182.561-1.189-2.475-1.04-3.017" fill-rule="evenodd"/>
 <path d="m43.864 93.979c1.137 0 2.604 1.696 1.496 2.695-1.548 1.396-2.341-1.65-1.496-2.695" fill-rule="evenodd"/>
 <path d="m114.01,93.979c.147.625.842,2.784-.558,2.506-2.386-.474-1.437-3.062.558-2.506" fill-rule="evenodd"/>
 <path d="m118.278,94.587c.361.686.238,2.582-.878,2.537-2.174-.088-1.112-3.083.878-2.537" fill-rule="evenodd"/>
 <path d="m102.42,94.893c1.127.495 1.184,3.517-.453,3.138-1.067-.247-1.074-.994-1.021-1.927 .092-1.586 1.35-.227 1.474-1.211" fill-rule="evenodd"/>
 <path d="m88.696,95.198c1.202.003 3.614,1.444 1.414,2.309-2.051.805-1.163-1.25-1.414-2.309" fill-rule="evenodd"/>
 <path d="m51.183,95.503c2.695.886-.608,3.488-.609,3.355-.886-.995-.106-2.532.609-3.355" fill-rule="evenodd"/>
 <path d="m55.758,95.503c.273.666-.195,3.664-1.43,2.473-1.336-1.289-.044-2.672 1.43-2.473" fill-rule="evenodd"/>
 <path d="m57.893,95.503c4.837.059-2.172,5.279 0,0" fill-rule="evenodd"/>
 <path d="m93.576,95.503c.176,1.809.772,2.44-1.525,2.44-.584-1.232-.053-2.737 1.525-2.44" fill-rule="evenodd"/>
 <path d="m110.352,95.808c-.161,1.151.164,2.329-1.832,2.135-.828-1.216.405-3.234 1.832-2.135" fill-rule="evenodd"/>
 <path d="m70.702,96.419c.176,1.193-.263,1.77-.61,2.439-2.277.013-1.6-3.832.61-2.439z" fill-rule="evenodd"/>
 <path d="m78.936,97.943c-.447.571-.584,1.449-1.829,1.221-1.42-1.991 1.717-3.944 1.829-1.221z" fill-rule="evenodd"/>
 <path d="m74.667,97.027c.191,6.075-4.326-2.326 0,0" fill-rule="evenodd"/>
 <path d="m99.37,97.943c.048,1.439-1.579,1.539-2.44,1.221-1.433-1.857 1.944-3.063 2.44-1.221z" fill-rule="evenodd"/>
 <path d="m41.729,99.772c-.965.419-1.02.067-2.136,0-1.07-2.253 2.709-3.512 2.136,0z" fill-rule="evenodd"/>
 <path d="m62.772,97.332c.623.854 1.36,3.285-.617,2.581-2.476-.882.873-1.819.617-2.581" fill-rule="evenodd"/>
 <path d="m85.036,97.332c1.016-.33.814.943 1.83.611 .293,2.649-3.025,2.31-1.83-.611" fill-rule="evenodd"/>
 <path d="m122.548,97.332c.919-.031 2.188,1.375 1.119,2.097-2.26,1.525-1.185-1.401-1.119-2.097" fill-rule="evenodd"/>
 <path d="m38.068,97.943c-.358,1.053.667.894.61,1.829-.648-.133-1.517,1.127-2.013.663-1.19-1.113-.291-3.242 1.403-2.492" fill-rule="evenodd"/>
 <path d="m65.212,97.943c1.329,0 2.75.763 1.831,2.439-2.167-.692-1.806-.111-1.831-2.439" fill-rule="evenodd"/>
 <path d="m48.743,98.553c1.971.3 1.712,3.526-.392,2.229-1.918-1.183.441-1.56.392-2.229" fill-rule="evenodd"/>
 <path d="m81.376,98.553c1.09-.165.586,1.602 1.83,1.219 .071.939-1.81,2.334-2.536,1.357-1.123-1.507.77-1.688.706-2.576" fill-rule="evenodd"/>
 <path d="m44.778,99.164c.358.573.867.775 1.525.608-.928.958.145,2.1-1.706,2.031-2.013-.075.022-1.847.181-2.639" fill-rule="evenodd"/>
 <path d="m106.689,99.772c.458,1.598-2.151,2.793-2.44,0 .814-.104 1.627-.104 2.44,0" fill-rule="evenodd"/>
 <path d="m59.722 100.08c0.586 1.43-1.451 2.895-2.247 1.702-1.002-1.502 1.128-2.381 2.247-1.702" fill-rule="evenodd"/>
 <path d="m90.831,100.077c.412,1.743-.842,1.832-2.135,1.832-1.471-1.518.905-3.069 2.135-1.832" fill-rule="evenodd"/>
 <path d="m92.051,99.772c1.818,0 2.814,2.717.813,2.706-.947-.005-1.104-2.123-.813-2.706" fill-rule="evenodd"/>
 <path d="m102.726,100.077c.236,1.162.676,2.981-.305,3.661-2.141.057-2.548-4.028.305-3.661z" fill-rule="evenodd"/>
 <path d="m114.01,100.688c.169,1.896.045,3.502-2.135,3.051-.759-2.213.357-2.582 2.135-3.051z" fill-rule="evenodd"/>
 <path d="m118.584,100.688c.797,6.001-3.319.104 0,0" fill-rule="evenodd"/>
 <path d="m78.936,101.604c-.292.623-.623,1.206-.915,1.829-2.745-.209-.982-3.758.915-1.829z" fill-rule="evenodd"/>
 <path d="m34.104,101.298c1.078.431 1.722,1.238 1.524,2.44 .72.111 2.16-.995 2.298.202 .056.48-.044,1.408.752,1.321-.628,2.14-3.014.417-2.745-1.218-1.844,1.968-3.017-1.333-1.829-2.745" fill-rule="evenodd"/>
 <path d="m50.877,101.298c1.5-.265 1.415,3.05-.915,3.05-.164-1.155.213-2.148.915-3.05" fill-rule="evenodd"/>
 <path d="m87.171,101.909c.368,1.518-1.952,1.902-2.484.61-.569-1.385 1.882-1.413 2.484-.61" fill-rule="evenodd"/>
 <path d="m108.22 101.3c1.487 0.032 1.876 1.171 1.526 2.44-1.729 0-2.152-0.75-1.526-2.44" fill-rule="evenodd"/>
 <path d="m55.758,101.604c1.458,1.362-.464,3.285-1.831,1.829 .001-1.202.287-2.195 1.831-1.829" fill-rule="evenodd"/>
 <path d="m70.702,101.909c.086,1.19-1.433,2.887-1.995.977-.549-1.866 1.026-.755 1.995-.977" fill-rule="evenodd"/>
 <path d="m39.898,101.909c1.37,0 2.52,1.431 1.525,2.743-1.658.212-2.144-1.492-1.525-2.743" fill-rule="evenodd"/>
 <path d="m63.383,101.909c-.12,1.326 1.272,2.396-.975,2.473-1.838.062-.447-2.595.975-2.473" fill-rule="evenodd"/>
 <path d="m72.531,101.909c1.392-.007 2.784.729 1.831,2.44-1.645,0-2.765-.501-1.831-2.44" fill-rule="evenodd"/>
 <path d="m96.625,101.909c1.148.135 2.886,1.985.958,2.513-2.26.617-1.127-1.357-.958-2.513" fill-rule="evenodd"/>
 <path d="m129.259,101.909c.134,1.047-.119,1.708-.305,2.44-2.08.439-2.073-3.227.305-2.44z" fill-rule="evenodd"/>
 <path d="m65.518,102.517c1.601-.179 1.939.908 2.134,2.134-1.256,1.189-2.945-.501-2.134-2.134z" fill-rule="evenodd"/>
 <path d="m104.555,103.738c2.114-.452 1.318,1.87 1.525,2.745-1.726.343-2.027-1.527-1.525-2.745" fill-rule="evenodd"/>
 <path d="m59.722,104.349v1.829c-.568-.59-1.182.491-1.83.306-1.135-1.449.316-2.798 1.83-2.135" fill-rule="evenodd"/>
 <path d="m77.107,104.349c1.504-.229 1.829.905 1.829,2.135-.873-.335-.802.913-1.45.642-.709-.298-.837-2.265-.379-2.777" fill-rule="evenodd"/>
 <path d="m124.38,104.349c.532.61.069,3.565-.911,2.636-1.171-1.11-1.049-2.912.911-2.636" fill-rule="evenodd"/>
 <path d="m80.461,104.651c1.886-.641 2.308,2.031 1.22,3.05-.457-.645-.878-.318-1.525-.305 .01-.925.112-1.84.305-2.745" fill-rule="evenodd"/>
 <path d="m88.391,104.651c.722,0 4.228.492 2.103,1.539-1.929.95-2.037.512-2.103-1.539" fill-rule="evenodd"/>
 <path d="m92.965,104.651c.607.553 1.592.433 1.852,1.422 .09.342-.732.356-.632,1.018-2.937,0-.823-.794-1.22-2.44" fill-rule="evenodd"/>
 <path d="m47.218,105.262c.507.178 1.015.178 1.525,0 .799.866.557,2.148 0,3.051-1.434-.361-2.048-1.698-1.525-3.051" fill-rule="evenodd"/>
 <path d="m69.177,105.262c1.896.042 2.314,2.786.102,2.82-1.465.022-.067-2.205-.102-2.82" fill-rule="evenodd"/>
 <path d="m85.036,105.262c1.531-.208 1.91.735 2.136,1.83-1.169,1.267-3.189.227-2.136-1.83z" fill-rule="evenodd"/>
 <path d="m62.467,106.178c1.525-.056.909,2.104.305,2.745-.397-.74-1.75-.95-1.639-2.014 .068-.648 1.268.068 1.334-.731" fill-rule="evenodd"/>
 <path d="m51.793,106.483v2.439c-2.725.263-2.54-2.583 0-2.439" fill-rule="evenodd"/>
 <path d="m107.91 106.48c4.264-0.489-1.554 5.606 0 0" fill-rule="evenodd"/>
 <path d="m40.204,107.091c1.574,0 2.506,2.531.903,2.673-1.355.121-1.391-1.703-.903-2.673" fill-rule="evenodd"/>
 <path d="m54.233,107.091c5.413.033-1.644,4.459 0,0" fill-rule="evenodd"/>
 <path d="m102.726,107.091c-.016,1.54.604,2.57-1.831,2.137-.796-1.455.397-2.413 1.831-2.137" fill-rule="evenodd"/>
 <path d="m118.584,107.091c.805.798.451,2.713-.968,2.19-1.812-.668-.398-2.349.968-2.19" fill-rule="evenodd"/>
 <path d="m33.799,107.396c1.596-.108 1.53,1.757.893,2.718-.725,1.093-2.716-1.426-.893-2.718" fill-rule="evenodd"/>
 <path d="m66.127 107.4c4.287 1.708-2.671 4.583 0 0" fill-rule="evenodd"/>
 <path d="m73.447,107.396c.411.483 1.992,3.951.276,3.465-3.654-1.036.305-2.569-.276-3.465" fill-rule="evenodd"/>
 <path d="m96.321 107.4c6.506 0-2.437 4.447 0 0" fill-rule="evenodd"/>
 <path d="m58.808,108.007c.642,1.281.329,3.075-1.22,3.05-.872-.906-.932-3.489 1.22-3.05z" fill-rule="evenodd"/>
 <path d="m36.239,108.618c1.719,0 2.311,2.129.915,3.143-1.226.891-1.585-2.431-.915-3.143" fill-rule="evenodd"/>
 <path d="m76.496,108.618c1.675.111 1.732,2.216.116,2.521-1.398.263-.57-2.094-.116-2.521" fill-rule="evenodd"/>
 <path d="m90.525,108.618c1.896,4.362-6.279.266 0,0" fill-rule="evenodd"/>
 <path d="m114.01 111.06h-2.135c-1.407-2.881 3.624-3.08 2.135 0z" fill-rule="evenodd"/>
 <path d="m129.259,108.923c1.431.069.588,2.667-1.465,2.002-1.79-.58 1.465-1.999 1.465-2.002" fill-rule="evenodd"/>
 <path d="m84.426,109.533c.765-1.168 2.446-.136 1.862,1.105-.872,1.857-1.546-1.066-1.862-1.105" fill-rule="evenodd"/>
 <path d="m93.576,109.228c.264.345 1.417.569 1.83.608 .877,3.71-4.095,1.048-1.83-.608" fill-rule="evenodd"/>
 <path d="m132.614,109.228c.957,0 1.751-.447 1.887.634 .057.448.323,1.598-.28,1.874-2.11.965-1.439-1.795-1.607-2.508" fill-rule="evenodd"/>
 <path d="m31.054,109.836c-.051.232.91,5.357-1.394,3.837-1.51-.996-.474-4.117 1.394-3.837" fill-rule="evenodd"/>
 <path d="m43.864,109.836c1.188.509 1.244,2.486.579,3.417-.468.655-2.583-2.165-.579-3.417" fill-rule="evenodd"/>
 <path d="m80.156,110.142c.981-1.398 2.316.724 2.136,1.832-2.667,2-1.146-.594-2.136-1.832" fill-rule="evenodd"/>
 <path d="m70.702,111.973c-.753-.166-2.55,1.53-2.121-.86 .287-1.594 2.349-.563 2.121.86" fill-rule="evenodd"/>
 <path d="m104.555,110.142c1.5.139 1.137,1.759.915,2.745-2.031-.33-1.988-1.249-.915-2.745" fill-rule="evenodd"/>
 <path d="m52.403,111.057c.285.973-.592,2.125-1.55,1.144-1.258-1.287.508-2.148 1.55-1.144" fill-rule="evenodd"/>
 <path d="m63.687,112.581c-.666-.055-.97.251-.915.916-4.224-1.053.866-4.515.915-.916" fill-rule="evenodd"/>
 <path d="m47.218,111.057c2.175,0 1.641.673 1.831,2.44-.508-.159-1.017-.159-1.525,0 .171-.563-.033-.869-.611-.916 .151-.498.253-1.006.305-1.524" fill-rule="evenodd"/>
 <path d="m42.033 111.67c1.12 4.705-4.771-2.076 0 0" fill-rule="evenodd"/>
 <path d="m101.2,111.668c1.851,0 1.925,1.223 2.135,2.745h-2.135c-.255-.788-.688-2.018 0-2.745" fill-rule="evenodd"/>
 <path d="m54.843,111.973c1.65.415 1.714,2.678 0,3.048-.142-.833-1.269-1.334-1.011-2.296 .177-.661 1.094.394 1.011-.752" fill-rule="evenodd"/>
 <path d="m86.257 111.97c2.513 4.912-4.757-0.927 0 0" fill-rule="evenodd"/>
 <path d="m107.3,111.973c1.409-.338.759,1.411 1.83,1.524-1.172,2.934-2.471.665-1.83-1.524" fill-rule="evenodd"/>
 <path d="m57.893 112.58c4.725 0-0.984 4.905 0 0" fill-rule="evenodd"/>
 <path d="m72.837 112.58c1.23 0 3.311 1.41 1.525 2.745-1.313-0.392-1.748-1.437-1.525-2.745" fill-rule="evenodd"/>
 <path d="m76.802,112.581c1.826-.371.977,3.889.771,4.71-.608,2.44-2.755-2.971-.466-1.66 .184-1.067-1.28-.835-1.22-1.83-.433-1.117 1.346-.101.915-1.22" fill-rule="evenodd"/>
 <path d="m96.321,112.581c3.65.156 1.353.688 1.83,3.051-1.554-.3-2.017-1.605-1.83-3.051" fill-rule="evenodd"/>
 <path d="m124.38,112.581c.374,1.132.851,1.787 0,2.745-1.813.772-2.8-3.05 0-2.745z" fill-rule="evenodd"/>
 <path d="m34.714,113.192c.554.633.447,2.329-.609,2.44-2.007-.097-1.178-2.672.609-2.44" fill-rule="evenodd"/>
 <path d="m66.127,113.497c1.352.619 2.783.93 4.27.916 .354.757-.295,2.4-1.345,1.75-.452-.281-5.225-.288-2.925-2.666" fill-rule="evenodd"/>
 <path d="m26.48,113.802c.102.204.203.407.304.611 .88-.242 1.996-1.202 1.449,1.027-.563,2.297-2.404-.118-1.753-1.638" fill-rule="evenodd"/>
 <path d="m111.57,113.802c2.723,0 1.467.951 1.829,2.44-1.782-.742-1.719-.344-1.829-2.44" fill-rule="evenodd"/>
 <path d="m116.449,114.413c1.674,0 2.178-.048 2.44,1.829-2.08.281-2.431.551-2.44-1.829" fill-rule="evenodd"/>
 <path d="m35.324 114.72c4.798 0-0.484 4.755 0 0" fill-rule="evenodd"/>
 <path d="m93.576,114.716c1.315-.276 1.039,2.715.915,3.355-3.25-.026-.822-2.213-.915-3.355" fill-rule="evenodd"/>
 <path d="m31.054,115.326c.001.57.654,3.127-.64,2.768-2.222-.619-1.518-3.129.64-2.768" fill-rule="evenodd"/>
 <path d="m44.169,115.326c-.146.896.776,1.933 0,2.745-1.028-.101-1.729-.801-1.831-1.829 .976.11.72-1.273 1.831-.916" fill-rule="evenodd"/>
 <path d="m64.297 116.24c0 4.495-3.831-1.18 0 0" fill-rule="evenodd"/>
 <path d="m49.354 116.55c1.094 4.634-5.833-1.615 0 0" fill-rule="evenodd"/>
 <path d="m39.593,116.547c1.529-.182 2.253,2.046.702,2.55-2.2.715-.719-1.568-.702-2.55" fill-rule="evenodd"/>
 <path d="m50.877,116.547c1.367-.542 2.462.557 1.744,1.999-.746,1.499-3.373-.497-1.744-1.999" fill-rule="evenodd"/>
 <path d="m128.038,116.547c3.589-.189.152,4.828 0,0" fill-rule="evenodd"/>
 <path d="m34.104,116.853c.839.362.964,1.349.915,2.135 .813-.135 1.626-.135 2.44,0-.1,1.944-2.277,2.913-2.135.305-.981.729-2.553.258-2.525-1.088 .018-.879 1.243-.582 1.305-1.352" fill-rule="evenodd"/>
 <path d="m27.395,117.158c.534,1.247.296,3.003-1.457,2.05-1.545-.84.431-2.232 1.457-2.05" fill-rule="evenodd"/>
 <path d="m58.198,117.158c1.094-.006 2.462.514 2.439,1.829-1.086-.186-1.165,1.013-2.345.233-1.327-.878.214-.915-.094-2.062" fill-rule="evenodd"/>
 <path d="m98.761,118.071c.134,1.355-.781,1.661-2.136,1.526-1.766-1.484 1.225-3.623 2.136-1.526z" fill-rule="evenodd"/>
 <path d="m135.662,117.158c.282.711.463,2.536-.196,3.097-.928.789-2.702-3.056.196-3.097" fill-rule="evenodd"/>
 <path d="m69.482,117.766c.697.12 2.092,1.984 1.014,2.435-2.165.906-1.073-1.796-1.014-2.435" fill-rule="evenodd"/>
 <path d="m101.506,117.766c.7,1.1.309,1.479.304,3.05-2.444.695-2.395-3.375-.304-3.05z" fill-rule="evenodd"/>
 <path d="m103.64 117.77c4.052 0-0.73 4.485 0 0" fill-rule="evenodd"/>
 <path d="m107.909,117.766c.615,1.127.129,2.152-.304,3.05-1.667-.504-1.896-2.841.304-3.05z" fill-rule="evenodd"/>
 <path d="m66.127,118.987c4.525.382-.492,5.257 0,0" fill-rule="evenodd"/>
 <path d="m64.603,120.206c-.106,1.504-.819,1.933-2.135,1.526-.373-2.008 1.439-3.115 2.135-1.526z" fill-rule="evenodd"/>
 <path d="m31.054,120.511c.902,1.674.5,3.158-1.579,3.005-3.269-.24-.361-2.966 1.579-3.005" fill-rule="evenodd"/>
 <path d="m112.486,120.816c1.147-.241.454,1.651.607,2.134-1.633-.005-2.134-.046-2.134-1.829 .281-.104 1.578.381 1.527-.305" fill-rule="evenodd"/>
 <path d="m34.714,121.122c.287.697.281,3.147-1.112,2.611-2.147-.827-.572-2.843 1.112-2.611" fill-rule="evenodd"/>
 <path d="m124.683,121.122c.257,2.039.968,2.44-1.524,2.44-.643-1.249-.014-2.663 1.524-2.44" fill-rule="evenodd"/>
 <path d="m22.819,121.427c1.456,1.413 1.89-.341 1.83,2.135-.766-.187-4.156.04-1.83-2.135" fill-rule="evenodd"/>
 <path d="m117.976,121.732c.132.575.01,2.556-.94,2.46-1.893-.188-.9-2.788.94-2.46" fill-rule="evenodd"/>
 <path d="m128.954,122.038c1.364.465 1.745,2.626.152,2.625-1.459-.002-1.51-2.016-.152-2.625" fill-rule="evenodd"/>
 <path d="m63.383,123.256c3.752.848-1.771,4.919 0,0" fill-rule="evenodd"/>
 <path d="m135.662,123.562c.164,1.688.1,3.147-1.829,2.745-.322-1.023-.238-3.217 1.829-2.745z" fill-rule="evenodd"/>
 <path d="m106.385,123.867c3.162-.108.251,2.618.304,3.05-1.7-1.101-.397-2.052-.304-3.05" fill-rule="evenodd"/>
 <path d="m102.73 124.48c0.658-0.08 3.156 1.077 1.971 1.943-2.327 1.702-1.75-1.008-1.971-1.943" fill-rule="evenodd"/>
 <path d="m24.955 125.7c2.621-0.824 1.324 1.917 1.525 2.44-2.024 1.063-1.649-1.401-1.525-2.44" fill-rule="evenodd"/>
 <path d="m23.735,126.307c.04.794.028,1.873-.667,2.434-1.234.995-.155,2.337-.282,4.216-.108,1.591-2.832,4.412-2.376,1.747 .173-1.008.17-2.003.305-2.982 .118-.857 1.091-1.084 1.189-2.059 .049-.85-.678-.867-.809-1.58-.285-1.55 1.43-2.291 2.64-1.776" fill-rule="evenodd"/>
 <path d="m28.92,126.307c5.05.213.013,4.388 0,0" fill-rule="evenodd"/>
 <path d="m138.1 126.31c1.583-0.376 2.673 1.307 2.438 2.745-2.278 1.202-2.933-0.772-2.438-2.745" fill-rule="evenodd"/>
 <path d="m110.654,127.222c2.4-.568 1.916,1.57 1.832,3.048-2.981.001-1.979-.622-1.832-3.048" fill-rule="evenodd"/>
 <path d="m119.8 127.52c0 3.343-4.324-0.252 0 0" fill-rule="evenodd"/>
 <path d="m234.782,127.525c.466,1.365.697,1.894-.304,2.745-1.51-.077-1.771-3.095.304-2.745z" fill-rule="evenodd"/>
 <path d="m106.385,129.356c1.311.424 1.117,2.58.304,3.354-.56-.366-1.026-.826-1.397-1.381-1.02-2.178 1.3-.156 1.093-1.973" fill-rule="evenodd"/>
 <path d="m228.073,129.356c2.245-.125 1.756.688 1.526,2.44-2.055-.195-1.51-.816-1.526-2.44" fill-rule="evenodd"/>
 <path d="m122.55 129.66c2.711-0.482 1.858 1.311 1.221 2.745-1.008-0.833-1.565-1.335-1.221-2.745" fill-rule="evenodd"/>
 <path d="m26.175 132.71c-4.089-2.804 2.141-3.004 0 0" fill-rule="evenodd"/>
 <path d="m128.954,130.271c.628,1.971 1.829-.7 1.829,2.439-2.414,1.057-2.488-.477-1.829-2.439" fill-rule="evenodd"/>
 <path d="m134.139,131.186c1.72-.019.593,2.812-.713,2.529-2.217-.48.702-2.448.713-2.529" fill-rule="evenodd"/>
 <path d="m235.09 131.8c-0.053 4.811-3.544-1.096 0 0" fill-rule="evenodd"/>
 <path d="m115.839,132.407c1.196,2.921-2.006,3.213-2.135.608 1.017.24 1.037-.971 2.135-.608" fill-rule="evenodd"/>
 <path d="m228.073,132.71c1.232,0 2.363.328 2.134,1.832-.444-.039-.646.163-.607.607-.934.057-.782-.966-1.832-.607 .101-.61.204-1.222.305-1.832" fill-rule="evenodd"/>
 <path d="m55.148 134.54c0.064 1.486-1.62 1.226-3.05 1.219-1.058-2.61 2.682-2.736 3.05-1.219z" fill-rule="evenodd"/>
 <path d="m25.564,133.931c1.569.036 1.909,2.623.472,3.133-1.2.424-.818-2.668-.472-3.133" fill-rule="evenodd"/>
 <path d="m45.083,133.931c.001.509.793,2.609-.142,2.728-2.11.267-2.313-2.856.142-2.728" fill-rule="evenodd"/>
 <path d="m140.239,133.931c.199.571.504,1.08.913,1.524-1.212,3.089-5.15-2.37-.913-1.524" fill-rule="evenodd"/>
 <path d="m225.63 134.85c-0.154 4.934-4.206-1.412 0 0z" fill-rule="evenodd"/>
 <path d="m35.934,134.847c2.411.349.082,4.086-.926,4.782-1.115.77-1.457-.853-1.188-1.646 .399-1.179 1.263-2.247 2.114-3.136" fill-rule="evenodd"/>
 <path d="m86.257,135.149c2.207,0 2.394,2.495.609,2.44-.017-.979-.824-1.375-.609-2.44" fill-rule="evenodd"/>
 <path d="m109.741,135.149c1.229,0 2.022.042 1.958,1.508-.072,1.655-1.03.347-1.348,1.543-1.219-.388-1.011-2.177-.61-3.051" fill-rule="evenodd"/>
 <path d="m234.479,136.371c.438,1.533-1.452,1.527-1.526,1.829-1.979-1.145.364-3.94 1.526-1.829" fill-rule="evenodd"/>
 <path d="m104.56 135.76c4.299 0-1.001 5.465 0 0" fill-rule="evenodd"/>
 <path d="m134.749,135.761c.238,1.563-.544,2.1-2.135,1.829-.243-1.562.541-2.101 2.135-1.829z" fill-rule="evenodd"/>
 <path d="m122.855,136.371c2.272.989-.043,1.953-.61,3.05-.963-.165-.638-1.471-.498-2.051 .349-1.449.233-.135 1.043-.443 .022-.186.044-.37.065-.556" fill-rule="evenodd"/>
 <path d="m115.53 136.98c3.612-0.738-0.826 6.051 0 0" fill-rule="evenodd"/>
 <path d="m20.99,137.286c3.378,0-1.026,5.919-1.22,1.219 .898.133 1.353-.32 1.22-1.219" fill-rule="evenodd"/>
 <path d="m128.648,137.286c1.301.479 1.819,3.339-.61,3.049-.531-1.075-.343-2.611.61-3.049z" fill-rule="evenodd"/>
 <path d="m228.073,137.59c1.319-.158 2.349,1.129 1.219,2.441-1.325-.923-1.008-.604-1.219-2.441" fill-rule="evenodd"/>
 <path d="m80.461,138.505c.11,2.09-1.479,2.416-2.44.611-.004-1.443 1.646-1.336 2.44-.611" fill-rule="evenodd"/>
 <path d="m103.335,138.505c.213,1.537-.633,2.011-2.135,1.83-1.08-1.648.698-2.698 2.135-1.83z" fill-rule="evenodd"/>
 <path d="m91.136,138.505c1.197,2.141-.536,3.418-2.44,2.745-.413-1.777.871-2.588 2.44-2.745" fill-rule="evenodd"/>
 <path d="m26.784,139.116c.662,5.225-4.799-.856 0,0" fill-rule="evenodd"/>
 <path d="m49.658,139.116c.308-.068 1.151,1.291.916,0 .995,1.16 2.518,1.435 3.963,1.219-.451,3.507-5.338,1.995-4.879-1.219" fill-rule="evenodd"/>
 <path d="m86.561 139.12c2.053 1.316 1.359 3.863-1.22 2.745-0.336-1.45 1.21-1.497 1.22-2.745" fill-rule="evenodd"/>
 <path d="m134.443,139.116c.074.835-.027,1.648-.305,2.439-.663-1.085-.896.273-1.568-.087-1.8-.965.661-2.64 1.873-2.352" fill-rule="evenodd"/>
 <path d="m93.881,139.727c1.871-.264 1.843,2.067.747,2.97-2.285,1.881-.827-2.493-.747-2.97" fill-rule="evenodd"/>
 <path d="m99.065,140.031c.322,2.063-.779,2.135-2.44,2.135-.786-1.578 1.004-3 2.44-2.135" fill-rule="evenodd"/>
 <path d="m139.323,140.64c.507,1.746-1.847,1.982-2.662.857-1.066-1.471 1.745-2.116 2.662-.857" fill-rule="evenodd"/>
 <path d="m233.563,140.031c-.021.632.08,1.241.305,1.83-2.313.692-3.566-1.818-.305-1.83" fill-rule="evenodd"/>
 <path d="m39.288,141.25c0,2.549-1.453,1.256-3.002,1.431-1.804.203-.972,4.152-.555,5.13 .791,1.851 4.332.823 4.095,2.287-.133.821-.55,1.75-.023,2.532 .656.974 2.393.817 2.23,2.346 2.228-.616 2.34,3.334-.657,1.286-1.963-1.341-3.514-3.835-6.052-4.031 .34-1.784-.671-2.803-1.83-3.966 .082-1.926-.59-3.921-.207-5.83 .578-2.873 4.098-1.674 6.001-1.185" fill-rule="evenodd"/>
 <path d="m224.11 140.94c2.518 1.114-0.664 2.892-1.832 3.05-1.105-1.84 1.692-1.999 1.832-3.05" fill-rule="evenodd"/>
 <path d="m227.16 141.86c5.635 0-1.356 4.102 0 0" fill-rule="evenodd"/>
 <path d="m120.72 143.38c-8e-3 1.251-1.663 2.003-2.743 1.221-0.06-2.266 1.951-3.179 2.743-1.221z" fill-rule="evenodd"/>
 <path d="m20.99,142.472c4.841.021-1.84,5.663 0,0" fill-rule="evenodd"/>
 <path d="m26.175,142.472c1.921.997.062,3.882-1.525,2.134-.319-1.931 1.51-1.241 1.525-2.134z" fill-rule="evenodd"/>
 <path d="m104.86,142.472c3.476.228-2.406,5.378 0,0" fill-rule="evenodd"/>
 <path d="m110.352,142.472c.585.785.676,3.434-.937,3.068-1.964-.445-.641-3.115.937-3.068" fill-rule="evenodd"/>
 <path d="m110.96,143.079c1.375-.071 3.429-.187 3.05,1.832-1.476,0-3.569.353-3.05-1.832" fill-rule="evenodd"/>
 <path d="m125.601,143.69c.533.521 1.571.603 1.909,1.359 .364.816-1.403.021-.996,1.08-.783-.24-1.418-.03-1.831-.916-.279-.98 1.122-.595.918-1.523" fill-rule="evenodd"/>
 <path d="m231.426,144.605c1.499-.03 2.108,2.416.435,2.547-3.332.262-.347-2.232-.435-2.547" fill-rule="evenodd"/>
 <path d="m102.726,144.911c.978.114 1.868,2.359.579,2.529-1.465.194-2.389-2.648-.579-2.529" fill-rule="evenodd"/>
 <path d="m96.93,147.656c-1.427.517-1.952-.1-2.134-1.526 1.302-1.145 2.865.008 2.134,1.526z" fill-rule="evenodd"/>
 <path d="m50.877 145.82c1.076 1.326 7.807 3.868 5.795 6.101-1.193-2.341-7.937-2.27-5.795-6.101" fill-rule="evenodd"/>
 <path d="m92.356,145.824c2.011,0 1.395,1.827.915,3.051-.49-.421-.777.205-1.152-.068-.896-.654.043-2.288.237-2.983" fill-rule="evenodd"/>
 <path d="m100.895,145.824c.068.552-.666,4.281-1.985,3.158-1.44-1.225.61-3.338 1.985-3.158" fill-rule="evenodd"/>
 <path d="m118.584,146.436c.048,1.973.032,1.829-2.135,1.829-.202-1.57.601-2.395 2.135-1.829" fill-rule="evenodd"/>
 <path d="m20.685 146.44c1.572 0 2.989 1.455 1.525 3.05-1.279-0.59-1.741-1.67-1.525-3.05" fill-rule="evenodd"/>
 <path d="m28.004,148.265c-.739.205-2.328,1.81-2.559-.229-.233-2.058 2.633-1.663 2.559.229" fill-rule="evenodd"/>
 <path d="m227.46 146.44c0 4.074-4.198 9e-3 0 0" fill-rule="evenodd"/>
 <path d="m138.407,147.351c.936,1.613-.34,3.411-1.829,1.83-.144-1.309.448-2.1 1.829-1.83" fill-rule="evenodd"/>
 <path d="m129.259,147.656c.266.648-.297,3.669-1.439,2.454-1.065-1.131-.008-2.835 1.439-2.454" fill-rule="evenodd"/>
 <path d="m116.755,148.569c1.137.37.82,1.393.538,2.221-.672,1.968-.537-.249-1.759.22-.272-1.248 1.216-1.315 1.221-2.441" fill-rule="evenodd"/>
 <path d="m222.277,150.096c.082,1.924-1.826,1.576-2.439.608-.02-1.551 1.893-1.983 2.439-.608z" fill-rule="evenodd"/>
 <path d="m229.292,149.181c.61.026 2.841-.167 2.553,1.02-.593,2.443-3.442,1.302-2.553-1.02" fill-rule="evenodd"/>
 <path d="m104.555,149.485c.9,0 1.552,1.241 1.596,2.002 .101,1.771-1.542.49-2.205.743-.862.196-.932,2.693-1.966.478-.26-.787-.012-1.354.746-1.698 .806-.205.516.566.915.915 1.064-.186.489-1.803.914-2.44" fill-rule="evenodd"/>
 <path d="m107.909,149.485c1.549-.218.496,2.807.61,3.354-3.187.487-.907-2.272-.61-3.354" fill-rule="evenodd"/>
 <path d="m122.855,150.096c.759.798 0,1.867 0,2.743-.175-.693-1.514-.242-1.221,0-1.331-1.103-.27-2.743 1.221-2.743" fill-rule="evenodd"/>
 <path d="m25.87 150.4c5.373 0-1.249 3.975 0 0" fill-rule="evenodd"/>
 <path d="m94.49,150.398c.362.686.24,2.582-.877,2.537-2.177-.087-1.156-3.119.877-2.537" fill-rule="evenodd"/>
 <path d="m225.938,150.398c-.165.955.909,2.27-1.219,2.138-.746-1.491-.925-2.249 1.219-2.138" fill-rule="evenodd"/>
 <path d="m21.904,151.314c.404.203.811.203 1.22,0-.189.913.562.884.915,1.524-.259.848-.771.153-.915,1.221-2.277.282-.928-1.541-1.22-2.745" fill-rule="evenodd"/>
 <path d="m77.411,152.23c1.357,0 1.043,1.015.929,1.953-.082.67-1.429,1.896-2.318,2.347-1.001.507-1.325-.885-1.355-1.555 1.103-.765 2.77-1.073 2.744-2.745" fill-rule="evenodd"/>
 <path d="m99.98,152.23c.287.597.306,3.09-.956,2.632-2.183-.793-1.057-2.973.956-2.632" fill-rule="evenodd"/>
 <path d="m137.797,153.144c1.226.282 1.768,1.566.832,2.514-1.175,1.19-2.402-1.292-.832-2.514" fill-rule="evenodd"/>
 <path d="m28.309,153.755c.368,1.757-.603,2.514-1.829,1.829-.151-1.37.314-2.125 1.829-1.829z" fill-rule="evenodd"/>
 <path d="m228.378,153.755h2.135c-.373,1.094 1.591,1.733-.191,2.122-1.467.32-2.604-.609-1.944-2.122" fill-rule="evenodd"/>
 <path d="m128.954,155.584c-.562.059-.766.363-.611.915-4.327-.982.498-3.244.611-.915" fill-rule="evenodd"/>
 <path d="m117.365,154.976c1.238.513 1.475,3.083-.312,2.723-1.854-.375.341-2.335.312-2.723" fill-rule="evenodd"/>
 <path d="m93.881,155.281c.628.218 1.441.599 1.307,1.422-.277,1.688-1.146.866-2.223,1.018 .309-.834-.16-1.989.916-2.44" fill-rule="evenodd"/>
 <path d="m24.649,155.889c0,1.868-.296,2.446-2.439,1.832-.369-1.657.967-2.605 2.439-1.832" fill-rule="evenodd"/>
 <path d="m112.789,155.584c-.013,1.803.452,2.463-2.135,2.137-.827-1.593.731-2.432 2.135-2.137" fill-rule="evenodd"/>
 <path d="m133.528,155.584c.573,1.652.414,3.683-1.524,3.66-.998-1.116-.472-3.769 1.524-3.66z" fill-rule="evenodd"/>
 <path d="m106.08,155.889c.506.425.632-.02 1.22,0 .529,4.254-1.755,4.251-1.22,0" fill-rule="evenodd"/>
 <path d="m71.617,156.805c.071,1.29-.276,2.717-1.525,3.355 1.325.744 3.072,1.857 4.662,1.659 1.999-.249.459-4.178 3.015-2.171 1.908,1.498 5.84.888 6.345,2.772 .534,1.997-7.114.051-7.922.18 .012,2.678 1.547,4.568 2.513,6.922 .948,2.311 2.824-.497 4.197.702-4.689,8.856-6.915-8.369-10.581-6.457-.366.191-3.119,2.662-3.312,1.523-.175-1.04.848-2.039.682-3.019-.293-1.722-1.335-6.308 1.926-5.466" fill-rule="evenodd"/>
 <path d="m63.078 156.8c1.494-0.148 4.892 1.191 3.049 3.355-0.941-1.196-3.068-1.204-3.049-3.355z" fill-rule="evenodd"/>
 <path d="m102.726,156.805c.908-.347.311.958 1.22.61-.339.678-.441,1.389-.305,2.135-1.208.1-2.194-.52-2.134-1.829 .765.159 1.172-.147 1.219-.916" fill-rule="evenodd"/>
 <path d="m26.784,157.721c1.182-.273 2.849.241 1.971,1.766-1.151,1.997-2.62-.34-1.971-1.766" fill-rule="evenodd"/>
 <path d="m123.158,159.244c-.095.926-1.723,1.239-2.439.611-.539-2.71 2.231-2.43 2.439-.611z" fill-rule="evenodd"/>
 <path d="m31.664,158.329c4.266-.507.022,5.191 0,0" fill-rule="evenodd"/>
 <path d="m98.456,158.329c.935,0 1.303.74 1.128,1.568-.402,1.906-1.162.758-2.348,1.176 .156-.472.054-.878-.305-1.218 .499-.57 1.498-.569 1.525-1.526" fill-rule="evenodd"/>
 <path d="m227.462,158.939c.507.275 1.016.275 1.527,0 .393.663-.023,3.25-1.172,3.08-2.046-.302-.432-2.163-.355-3.08" fill-rule="evenodd"/>
 <path d="m36.544,160.16c1.573-.151 2.533.312 2.439,1.829-1.045-.228-2.734.363-2.439-1.829z" fill-rule="evenodd"/>
 <path d="m126.514,160.16c.876.862 1.926-.563 2.283,1.407 .186,1.023-1.616.593-1.978,1.338-1.053-.551-.393-1.901-.305-2.745" fill-rule="evenodd"/>
 <path d="m138.104,160.769c.447,1.668-.779,1.663-1.221,2.439-1.737-.521-.58-3.852 1.221-2.439z" fill-rule="evenodd"/>
 <path d="m29.834,164.124c-1.179.636-1.899-.37-2.44-1.219 .523-1.816 3.126-1.384 2.44,1.219z" fill-rule="evenodd"/>
 <path d="m34.409,162.601c.234,1.05-.856,1.194-.915,2.134-1.031-.462-1.844-1.225-1.831-2.439 .97-.07 1.857-.218 2.746.305" fill-rule="evenodd"/>
 <path d="m102.42,162.295c0,1.728.222,3.678-1.22,3.964-1.898-.693-.51-4.078 1.22-3.964z" fill-rule="evenodd"/>
 <path d="m98.15,162.905c1.145.29.923,3.06-.306,3.048-3.199-.057.311-3.086.306-3.048" fill-rule="evenodd"/>
 <path d="m114.62,162.905c.715,0 3.017,1.434 1.814,2.222-1.501.983-3.075-.976-1.814-2.222" fill-rule="evenodd"/>
 <path d="m106.385,163.514c1.407,3.059-2.011,4.407-1.831.61 1.016.332.816-.94 1.831-.61" fill-rule="evenodd"/>
 <path d="m132.614,163.514c.051,1 .068,2.1-.308,3.05-1.456.165-3.37-3.667.308-3.05" fill-rule="evenodd"/>
 <path d="m227.462,163.818c.447,1.619-.444,2.972-2.203,2.306-1.589-.602.949-2.863 2.203-2.306" fill-rule="evenodd"/>
 <path d="m36.848,164.124c2.021-.506 1.477,1.229 1.831,2.439-.572-.594-.98.699-1.737.402-.88-.345-.337-2.251-.094-2.841" fill-rule="evenodd"/>
 <path d="m41.729,164.124c.756.92 2.479.734 1.253,2.32-1.332,1.724-2.528-1.233-1.253-2.32" fill-rule="evenodd"/>
 <path d="m121.329,165.04c1.468-.174 2.685,2.057 1.126,2.856-1.458.75-1.404-2.231-1.126-2.856" fill-rule="evenodd"/>
 <path d="m214.96 165.04c5.112 0-0.2 3.86 0 0" fill-rule="evenodd"/>
 <path d="m127.427,168.088c-1.005-.214-1.786-.65-1.523-2.135 1.891-1.464 2.918.762 1.523,2.135z" fill-rule="evenodd"/>
 <path d="m110.044,165.647c1.131,0 1.473.996 2.442.916-.716.756-.392,1.7-1.71,1.576-1.428-.132-.826-1.57-.732-2.492" fill-rule="evenodd"/>
 <path d="m30.444,166.869c.251,1.965-1.976.845-2.44.916-.185-1.508 1.725-2.48 2.44-.916" fill-rule="evenodd"/>
 <path d="m45.389,165.953c1.783,0 .968,1.686 1.22,2.745h-1.83c-.261-.958-.427-2.14.61-2.745" fill-rule="evenodd"/>
 <path d="m34.714,169.309c-.711.457-1.314-.102-1.525.306-2.201-2.267 2.122-4.131 1.525-.306z" fill-rule="evenodd"/>
 <path d="m135.359,166.869c.616,1.256.124,2.871-1.831,2.439-.439-1.079.134-2.61 1.831-2.439z" fill-rule="evenodd"/>
 <path d="m49.658,167.785c.793.286 1.554,2.748.411,2.991-2.797.596-.563-2.435-.411-2.991" fill-rule="evenodd"/>
 <path d="m225.022,167.785c.462,2.578-1.633,3.807-2.745,3.048-1.431-1.562.958-2.879 2.745-3.048z" fill-rule="evenodd"/>
 <path d="m36.848,168.393c3.142,0 3.011,2.732-.304,1.526 .309-.467.41-.977.304-1.526" fill-rule="evenodd"/>
 <path d="m42.949,168.393c-.031,1.174 1.235.569.087,1.766-1.29,1.345-1.383-.024-2.527-.544 .921-.524 1.19-1.509 2.44-1.222" fill-rule="evenodd"/>
 <path d="m68.263,168.393c3.038-1.111 1.505,4.429-.646,4.141-1.143-.154.537-3.565.646-4.141" fill-rule="evenodd"/>
 <path d="m96.321,168.393c1.311.19.924,2.253.609,3.051-3.077-.001-1.438-1.479-.609-3.051" fill-rule="evenodd"/>
 <path d="m31.664,169.614c.223,1.802-1.964,1.354-2.744.61-.258-1.518 2.122-1.601 2.744-.61" fill-rule="evenodd"/>
 <path d="m65.518,169.614c.154,1.751-.945.829-1.831,1.523-1.843-1.048.614-2.752 1.831-1.523" fill-rule="evenodd"/>
 <path d="m45.083,169.614c.624.192 3.019,2.336 1.575,2.829-2.925.999-1.689-1.601-1.575-2.829" fill-rule="evenodd"/>
 <path d="m100.895,169.614c-.122.604.575,2.562-.498,2.598-2.66.09-1.639-2.848.498-2.598" fill-rule="evenodd"/>
 <path d="m104.25,170.225c1.25,0 2.382.195 2.136,1.829-1.289,1.534-2.69-.43-2.136-1.829" fill-rule="evenodd"/>
 <path d="m114.923,170.225c1.796-.67 2.057,1.355 1.907,2.804-.1.968-1.791.28-2.028-.283-.296-.706.294-1.731.121-2.521" fill-rule="evenodd"/>
 <path d="m211.605,170.225c.343,1.563-.71,1.732-1.526,2.135-1.616-.736-.678-2.734 1.526-2.135z" fill-rule="evenodd"/>
 <path d="m126.819,170.53c1.906.037.893,2.251-.115,2.723-2.116.99-.029-2.098.115-2.723" fill-rule="evenodd"/>
 <path d="m130.48,170.833c2.079-.708 1.808,1.922 1.523,3.05-1.797.349-2.02-1.882-1.523-3.05" fill-rule="evenodd"/>
 <path d="m35.019,173.883c-.932.221-1.112-.31-1.831-.305-.725-3.87 3.327-2.323 1.831.305z" fill-rule="evenodd"/>
 <path d="m54.233,171.443c1.206.803 1.799,2.875-.306,2.745-1.577-1.997.196-1.795.306-2.745" fill-rule="evenodd"/>
 <path d="m31.664 172.05c-0.018 6.047-4.465-1.95 0 0" fill-rule="evenodd"/>
 <path d="m36.848,172.359c1.789.077 2.248-.487 2.12,1.398-.06.892 1.208,3.043.219,3.723-1.18.81-3.093-1.524-1.119-2.376-.548-1.043-1.573-1.373-1.22-2.745" fill-rule="evenodd"/>
 <path d="m41.729,172.359c.873-.212.51.997 1.524.61-.168,4.071-3.137,1.943-1.524-.61" fill-rule="evenodd"/>
 <path d="m51.488,172.97c.161.994-.262,3.174-1.613,1.765-1.142-1.191.342-3.001 1.613-1.765" fill-rule="evenodd"/>
 <path d="m64.603,172.97c2.08-.789 3.776,1.71 5.794,1.219-.097.588-.471,1.754-1.14,1.972-.325.105-.101-.775-.385-.751-1.119.059.162.983-1.465.409-1.253-.443-2.608-1.431-2.804-2.849" fill-rule="evenodd"/>
 <path d="m76.802,172.97c-.022,2.057-.123,2.826-2.702,2.721-4.038-.167 1.032-2.634 2.702-2.721" fill-rule="evenodd"/>
 <path d="m94.185,172.97c.3.802-.071,3.666-1.496,2.919-1.823-.957-.002-3.101 1.496-2.919" fill-rule="evenodd"/>
 <path d="m220.754,175.712c-1.223-.724-1.628-.912-1.222-2.439 .812.872 1.392-.873 2.331.104 .802.834-.421,1.985-1.109,2.335" fill-rule="evenodd"/>
 <path d="m45.389 174.19c4.727 0-2.018 4.714 0 0" fill-rule="evenodd"/>
 <path d="m106.995,174.188c1.368,2.47-2.148,3.864-1.829.61 .864.053.594-1.031 1.829-.61z" fill-rule="evenodd"/>
 <path d="m110.65 174.19c1.532 0 4.105 1.414 1.924 3.002-1.199 0.874-1.99-2.318-1.924-3.002" fill-rule="evenodd"/>
 <path d="m121.33 174.19h2.439c0.223 2.998-2.912 2.826-2.439 0" fill-rule="evenodd"/>
 <path d="m33.188 175.1c0.939-0.209 2.785 1.379 1.474 2.186-2.557 1.572-1.396-1.078-1.474-2.186" fill-rule="evenodd"/>
 <path d="m56.368,175.104c1.643,0 2.263,2.143.915,3.05-.858-.436-2.885-1.848-2.439.303-.839-.575-1.904-.283-1.432-1.877 .346-1.168 1.737-1.505 1.737.048 .922.043 1.063-.854 1.219-1.524" fill-rule="evenodd"/>
 <path d="m102.726,178.457c-1.444,1.122-2.714.05-2.745-1.829 1.177-1.124 2.761.047 2.745,1.829z" fill-rule="evenodd"/>
 <path d="m98.15,176.934c-.113,1.585-.864,1.417-2.135,1.829-.793-2.042-.424-3.097 2.135-1.829" fill-rule="evenodd"/>
 <path d="m85.036,176.628c.567.327 1.177.429 1.83.306 .284,2.93-3.923,2.348-1.83-.306" fill-rule="evenodd"/>
 <path d="m160.06,176.934c.107.281-.345,1.575.309,1.523-2.851,2.954-3.677-3.364-.309-1.523" fill-rule="evenodd"/>
 <path d="m211 176.93c1.202 0 2.403-0.108 1.771 1.531-0.813 2.104-2.323-0.218-1.771-1.531" fill-rule="evenodd"/>
 <path d="m41.424,177.544c4.552-1.054.122,5.1 0,0" fill-rule="evenodd"/>
 <path d="m49.963,177.544c1.178-.04 3.149.86 1.709,2.167-1.584,1.437-2.4-.932-1.709-2.167" fill-rule="evenodd"/>
 <path d="m127.427,177.544c-.003.662.55,3.08-.415,3.322-1.73.434-2.61-3.739.415-3.322" fill-rule="evenodd"/>
 <path d="m201.847,177.544c1.239,2.153-.061,2.135-1.832,2.135-.587-1.363.413-2.458 1.832-2.135" fill-rule="evenodd"/>
 <path d="m219.532,177.544c.496.85-.082,1.381-.559,2.018-.957,1.277-1.662-.018-2.797-.188 .354-1.559 1.927-2.104 3.356-1.83" fill-rule="evenodd"/>
 <path d="m47.218,178.763c.069.771-.678,1.062-.609,1.832-2.25-.057-1.555-3.71.609-1.832" fill-rule="evenodd"/>
 <path d="m117.058,178.154c.795.095.669.692 1.526.303 .122,1.022-.818,1.706-.608,2.745-2.493,0-1.052-1.645-.918-3.048" fill-rule="evenodd"/>
 <path d="m37.459,178.763 2.134.61c-.705.993.947,6.363-1.935,4.215-1.108-.827.123-3.614-.199-4.825" fill-rule="evenodd"/>
 <path d="m90.525,178.763c.84,1.849-1.159,3.657-2.908,2.43-1.238-.869 2.221-2.485 2.908-2.43" fill-rule="evenodd"/>
 <path d="m108.215,182.118c-2.08-.203-2.038-2.42-.61-3.355 1.412.045.909,2.469.61,3.355z" fill-rule="evenodd"/>
 <path d="m58.502,181.508c-1.167-.292-1.948,1.181-2.102-.994-.145-2.047 2.232-.44 2.102.994" fill-rule="evenodd"/>
 <path d="m55.453,179.679c.875,2.134-.064,2.439-1.831,2.439-.763-1.49.099-2.906 1.831-2.439" fill-rule="evenodd"/>
 <path d="m63.992 179.68c4.039 0 0 4.036 0 0" fill-rule="evenodd"/>
 <path d="m79.241,179.679c1.924-.032 2.69,3.098-.305,2.439-.133-1.047.121-1.71.305-2.439z" fill-rule="evenodd"/>
 <path d="m204.283,179.679c1.296-.496 2.036,1.712.911,2.356-1.138.653-1.125-1.919-.911-2.356" fill-rule="evenodd"/>
 <path d="m62.467,182.729c-1.547.571-2.857-.239-2.745-1.831 1.685-1.094 3.133-.18 2.745,1.831" fill-rule="evenodd"/>
 <path d="m77.411,180.897c1.175-.057 1.22,2.087.305,2.439-2.54.424-.3-2.374-.305-2.439" fill-rule="evenodd"/>
 <path d="m86.257,181.508c.25,1.653-.956,1.561-2.136,1.829-.367-.555-.57-1.165-.609-1.829 1.035-.135 1.817-1.077 2.745,0" fill-rule="evenodd"/>
 <path d="m70.397,181.202c1.229.134.99,2.951-.305,2.951-2.06,0-.572-2.379.305-2.951" fill-rule="evenodd"/>
 <path d="m157.62 181.2c0 2.538-0.25 2.135-2.745 2.135 0-1.816 0.655-2.531 2.745-2.135" fill-rule="evenodd"/>
 <path d="m47.523,181.508c.171,1.14 1.064,2.86-.973,2.226-1.567-.489-.544-2.745.973-2.226" fill-rule="evenodd"/>
 <path d="m93.271 181.51c0.866 6.845-4.754-1.471 0 0" fill-rule="evenodd"/>
 <path d="m95.71,181.508c1.138,0 4.001.588 2.134,2.439-1.585-.36-2.421-.181-2.134-2.439" fill-rule="evenodd"/>
 <path d="m122.245,181.508c1.947-.731 2.444,2.145 1.219,3.05-2.105.6-1.604-1.895-1.219-3.05" fill-rule="evenodd"/>
 <path d="m215.569,182.118c-.509.407-.103,1.728-.611,2.135-3.025.345-1.449-3.552.611-2.135z" fill-rule="evenodd"/>
 <path d="m42.033,182.118c2.672,0 1.239,1.901.916,3.051-1.435-.174-1.37-2.104-.916-3.051" fill-rule="evenodd"/>
 <path d="m102.115,182.118c1.227-.013 1.923,2.819.592,3.028-1.364.215-1.596-1.49-1.507-2.418 .487-.77.771.635.915-.61" fill-rule="evenodd"/>
 <path d="m49.658,183.034c1.816,0 2.405.896 1.831,2.745-1.51.178-2.215-1.193-1.831-2.745" fill-rule="evenodd"/>
 <path d="m80.461,183.034c1.036.029 1.841,1.536 1.379,2.439-.351.686-1.466.281-1.802-.163-.498-.659.192-1.682.423-2.276" fill-rule="evenodd"/>
 <path d="m114.312,183.947-.913,1.832c-.385-.364-.651-.801-.913,0-2.263-1.738.486-3.746 1.826-1.832" fill-rule="evenodd"/>
 <path d="m57.282,183.337c1.705-.116 2.552,3.295.604,3.494-1.25.129-.814-2.87-.604-3.494" fill-rule="evenodd"/>
 <path d="m55.453,183.947c-.096.813-.494,3.011-1.751,1.853-1.356-1.25.526-3.16 1.751-1.853" fill-rule="evenodd"/>
 <path d="m109.741,185.474c-.698.25-3.533,1.129-2.749-1.038 .524-1.45 2.669-.009 2.749,1.038" fill-rule="evenodd"/>
 <path d="m65.518,183.947c1.467-.135 2.269.668 2.134,2.135-1.379,0-3.079-.094-2.134-2.135" fill-rule="evenodd"/>
 <path d="m193.914,183.947c.467.309.976.41 1.526.306 .138.772-.04,1.569-.825,1.919-1.65.735-1.062-1.498-.701-2.225" fill-rule="evenodd"/>
 <path d="m75.582,184.863c.291,1.619-.396,2.724-2.051,2.031-1.394-.581.669-2.618 2.051-2.031" fill-rule="evenodd"/>
 <path d="m62.772,185.169c.726,1.022.123,2.826-.915,3.05-1.174-.78-1.273-3.322.915-3.05z" fill-rule="evenodd"/>
 <path d="m69.482,185.169c1.395-.102 1.64,1.446 1.22,2.439-1.766.519-2.374-1.109-1.22-2.439" fill-rule="evenodd"/>
 <path d="m46.913,185.474c.776.719 1.292,1.322.916,2.439-.574.168-.966-.769-.916.306-1.03-.099-.312-1.584-1.22-1.832 .096-.723 1.363.008 1.22-.913" fill-rule="evenodd"/>
 <path d="m198.793,185.779c.934,0 3.081-.43 1.884,1.143-.3.464-.723.746-1.27.848-1.777.024-.392-1.238-.614-1.991" fill-rule="evenodd"/>
 <path d="m76.802,186.082c1.873,0 2.075.507 1.83,2.439-1.415.175-1.931-.984-1.83-2.439" fill-rule="evenodd"/>
 <path d="m85.951,186.082c.978.58 2.581,2.813.124,2.466-2.594-.367-.058-1.563-.124-2.466" fill-rule="evenodd"/>
 <path d="m92.051,186.082c.384-.028.749.039 1.095.202 .204.396-.222,1.475.43,1.629-.277.945-1.345,1.014-2.135.914-.223-1.059.379-1.772.61-2.745" fill-rule="evenodd"/>
 <path d="m116.45 186.08c1.176 0 3.082-0.142 1.955 1.62-1.176 1.839-2.54-0.222-1.955-1.62" fill-rule="evenodd"/>
 <path d="m213.432,186.692c.191,1.613-.521,2.325-2.134,2.135-1.132-1.524.702-3.11 2.134-2.135z" fill-rule="evenodd"/>
 <path d="m99.065,189.132c-1.722,1.844-2.614-.764-2.44-2.134 1.764-.467 2.587.336 2.44,2.134" fill-rule="evenodd"/>
 <path d="m151.827,186.692c1.931,0 2.669.519 1.526,2.439-2.349-.47-1.149-1.144-1.526-2.439" fill-rule="evenodd"/>
 <path d="m57.587,187.303c.749.136 3.48.745 1.725,1.929-2.022,1.363-1.589-1.132-1.725-1.929" fill-rule="evenodd"/>
 <path d="m49.963,187.608c1.669.084 2.268,2.082 1.525,3.658-1.491-.424-2.24-1.864-1.525-3.658z" fill-rule="evenodd"/>
 <path d="m53.928 187.61c4.686 0-1.05 4.721 0 0" fill-rule="evenodd"/>
 <path d="m66.127,187.608c1.554,0 2.819-.099 2.136,1.829-2.361.08-2.114.384-2.136-1.829" fill-rule="evenodd"/>
 <path d="m81.072 187.61c5.336-0.862-2.371 5.001 0 0" fill-rule="evenodd"/>
 <path d="m109.433,188.827c-.221.72-.656,2.677-1.535,2.873-1.278.285-.653-5.16 1.535-2.873" fill-rule="evenodd"/>
 <path d="m76.191,188.827c.351.854.351,1.586 0,2.439-2.37.477-2.138-2.774 0-2.439z" fill-rule="evenodd"/>
 <path d="m102.42,188.827c1.616-.074 2.397,2.124 1.22,3.05-1.121-.401-1.985-1.646-1.22-3.05z" fill-rule="evenodd"/>
 <path d="m116.449,189.438c.162,1.54-1.176,1.964-2.439,1.829-.781-2.042.619-2.652 2.439-1.829" fill-rule="evenodd"/>
 <path d="m71.922,189.743c.33,4.653-4.651.011 0,0" fill-rule="evenodd"/>
 <path d="m89.306,190.048c-.113.809-.24,3.097-2.134,2.135-.721-1.258.812-3.111 2.134-2.135" fill-rule="evenodd"/>
 <path d="m63.383,190.658c.01.987-.386,2.907-1.822,1.974-1.749-1.137.557-2.624 1.822-1.974" fill-rule="evenodd"/>
 <path d="m95.101,190.658c.326,2.156-1.29,1.885-2.441.914 .672-.795 1.289-1.598 2.441-.914" fill-rule="evenodd"/>
 <path d="m68.566,190.961c-.014,4.771-4.77-.334 0,0" fill-rule="evenodd"/>
 <path d="m80.156,191.572c.331,1.394-.875,2.75-2.134,1.526-.201-1.299.903-2.726 2.134-1.526" fill-rule="evenodd"/>
 <path d="m208.553,190.961c-.138.982-1.404,5.025-3.155,2.716-.869-1.146 2.411-2.679 3.155-2.716" fill-rule="evenodd"/>
 <path d="m57.893,191.572c1.213-.094 2.134,1.659 1.487,2.655-.39.6-1.328.137-1.717-.151-.839-.621-.02-1.808.23-2.504" fill-rule="evenodd"/>
 <path d="m81.681,191.572c1.84,0 3.101.092 2.134,2.439-1.88.001-2.412-.238-2.134-2.439" fill-rule="evenodd"/>
 <path d="m75.582,192.183c2.011.017.627,2.054.609,3.05-2.609.226-.945-2.185-.609-3.05" fill-rule="evenodd"/>
 <path d="m200.015,194.317c-4.836-.017.555-4.02 0,0" fill-rule="evenodd"/>
 <path d="m98.761,192.793c1.927-.002.893,2.17.304,3.051-.641-.721-1.591-1.259-1.358-2.427 .099-.498.928.455 1.054-.624" fill-rule="evenodd"/>
 <path d="m88.391,193.403c1.526,0 3.188.125 2.503,2.287-.421,1.329-3.316-.386-2.503-2.287" fill-rule="evenodd"/>
 <path d="m105.47 193.4c1.644 5.882-4.041-1.381 0 0" fill-rule="evenodd"/>
 <path d="m70.702,194.012c1.331,0 2.163.596 1.525,2.135-.96-.001-3.081-.68-1.525-2.135" fill-rule="evenodd"/>
 <path d="m66.432,194.317c2.346,0 .968.679 2.439,1.526-1.524,1.092-3.08.279-2.439-1.526" fill-rule="evenodd"/>
 <path d="m192.085,194.317c.426-.09 1.072.558 1.526.61-.29.581-.493,1.19-.61,1.829-.473-.156-.88-.055-1.222.305-1.025-.897-.177-1.89.306-2.744" fill-rule="evenodd"/>
 <path d="m62.162,194.928c1.375,0 2.596,2.278.916,3.05-1.841.049-1.43-1.955-.916-3.05" fill-rule="evenodd"/>
 <path d="m94.185 194.93c1.598 0 2.455 1.322 1.22 2.745-1.308-0.273-1.863-1.591-1.22-2.745" fill-rule="evenodd"/>
 <path d="m203.98,194.928c2.073.553.201,5.433-2.134,3.05 .445-1.187 1.325-2.11 2.134-3.05" fill-rule="evenodd"/>
 <path d="m81.072,196.146c-.159,1.127-1.457,3.132-2.202,1.085-.601-1.649 1.218-2.39 2.202-1.085" fill-rule="evenodd"/>
 <path d="m85.646,198.586c-.964-.341-2.993.102-2.44-1.829 1.263-1.861 3.487.008 2.44,1.829" fill-rule="evenodd"/>
 <path d="m77.107,198.586c-.407.437-1.729.437-2.136,0-.502-2.222 2.792-2.447 2.136,0z" fill-rule="evenodd"/>
 <path d="m99.065,196.757c3.849-.588.02,5.388 0,0" fill-rule="evenodd"/>
 <path d="m71.617,197.062c1.04.283 1.674.971 1.525,2.44-2.229.955-2.809-1.085-1.525-2.44z" fill-rule="evenodd"/>
 <path d="m67.652,197.673c1.057.077 1.692,1.117 1.327,2.098-.547,1.468-.852-.1-1.509.219-1.636.789.073-1.482.182-2.317" fill-rule="evenodd"/>
 <path d="m92.66,198.892c0,1.877-.505,2.074-2.44,1.831 0-1.59.551-2.766 2.44-1.831" fill-rule="evenodd"/>
 <path d="m79.547,198.892c1.355,0 2.923-.051 1.87,1.769-.85,1.47-.758-.363-1.87.062v-1.831" fill-rule="evenodd"/>
 <path d="m189.034,198.892c-.107.752-.421,1.682-.303,2.439-2.598-.469-1.725-3.107.303-2.439" fill-rule="evenodd"/>
 <path d="m182.02 199.5c5.174 0.013-0.806 4.515 0 0" fill-rule="evenodd"/>
 <path d="m194.222,199.807c1.197,2.114-.951,2.391-2.137,2.44-.576-1.535.527-2.84 2.137-2.44" fill-rule="evenodd"/>
 <path d="m200.32 200.42c0.808 2.926-1.04 1.853-2.744 1.829 0.063-1.567 1.407-1.945 2.744-1.829" fill-rule="evenodd"/>
 <path d="m115.231,204.076c.274,3.2-5.047.211 0,0" fill-rule="evenodd"/>
 <path d="m181.41 204.38h1.831c0.493 3.839-2.922 2.089-1.831 0" fill-rule="evenodd"/>
 <path d="m187.82 204.38c1.155 2.263-1.546 1.186-2.137 2.44-1.98-1.701 0.666-2.701 2.137-2.44" fill-rule="evenodd"/>
 <path d="m196.048,205.907c-.779.899-1.234,3.062-2.989,1.637-1.284-1.043 1.888-2.477 2.989-1.637" fill-rule="evenodd"/>
 <path d="m180.496,208.348c.508.158 1.017.158 1.524,0 .137,1.069-.188,3.018-1.89,2.285-.789-.34.322-1.807.366-2.285" fill-rule="evenodd"/>
 <path d="m104.86,208.652c2.62-.467 1.794,1.07 1.22,2.44-.98-.535-1.405-1.292-1.22-2.44" fill-rule="evenodd"/>
 <path d="m191.48 208.96c0.232 1.765-1.831 2.667-3.096 1.448-1.042-1.002 2.515-1.649 3.096-1.448" fill-rule="evenodd"/>
 <path d="m100.285,208.956c.117,1.437-.023,2.618-1.524,2.439-1.012-.729-.197-2.67 1.524-2.439z" fill-rule="evenodd"/>
 <path d="m102.726,211.396c0,2.215-.27,1.831-2.441,1.831 .428-1.28.857-2.228 2.441-1.831" fill-rule="evenodd"/>
 <path d="m185.679,211.7c.456,2.564-1.039,1.5-2.438,1.832-.269-1.676 1.081-1.973 2.438-1.832" fill-rule="evenodd"/>
 <path d="m94.185 212.62c0 7.234-3.678-1.218 0 0" fill-rule="evenodd"/>
 <path d="m81.986,215.361c-1.339.221-1.581-.655-1.831-1.526 .491-2.162 3.246.04 1.831,1.526z" fill-rule="evenodd"/>
 <path d="m83.815,213.227c.892.399 1.754-.456 2.181.509 .211.478.3,1.307-.288,1.595-1.221.598-3.305-.837-1.893-2.104" fill-rule="evenodd"/>
 <path d="m77.107,213.532c1.062,0 2.539.421 2.134,1.829-.724-.392-.556-.615-1.22.61-.853-.55-1.075-1.491-.914-2.439" fill-rule="evenodd"/>
 <path d="m90.525,214.141c.101,1.446-1.583,2.308-2.745,1.526-.167-2.202 1.363-2.393 2.745-1.526z" fill-rule="evenodd"/>
 <path d="m96.321,213.532c.704-.118 3.059.85 2.374,1.891-1.648,2.507-2.494-.671-2.374-1.891" fill-rule="evenodd"/>
 <path d="m140.239,214.445c.149.417 2.632,1.555 1.722,2.111-1.589.971-3.954-1.045-1.722-2.111" fill-rule="evenodd"/>
 <path d="m92.66,217.496c.995.203 1.328,2.251.27,2.583-2.88.902-.453-2.207-.27-2.583" fill-rule="evenodd"/>
 <path d="m88.696,217.801c1.614,1.963-1.92,4.196-2.136.306 .836.192 1.322-.432 2.136-.306" fill-rule="evenodd"/>
 <path d="m108.825,218.106c.201,1.32-.348,1.889-.916,2.439-2.443.218-1.752-3.498.916-2.439z" fill-rule="evenodd"/>
 <path d="m135.968,218.106v.913c.992-1.38 3.177.714 2.08,1.338-1.1.627-1.497.047-2.08-.727-1.011.955-2.222.552-2.135-.914 .536.513 1.381-.902 2.135-.61" fill-rule="evenodd"/>
 <path d="m109.433,220.546c2.637.01 1.564.243 1.832,1.83-1.436-.327-1.938.193-1.832-1.83" fill-rule="evenodd"/>
 <path d="m135.052,222.07-.608,2.135c-.36-.552-.869-.856-1.526-.914 .052-1.005 1.15-2.053 2.134-1.221" fill-rule="evenodd"/>
 <path d="m104.86 222.38c3.296 2.161-3.558 5.201 0 0" fill-rule="evenodd"/>
 <path d="m132.614,225.12c1.244-.064 2.941.69 1.524,2.135-1.428.245-2.186-.884-1.524-2.135" fill-rule="evenodd"/>
 <path d="m95.405,228.171c1.591,5.105-4.868.011 0,0" fill-rule="evenodd"/>
 <path d="m159.452,228.477c-.876,1.239-2.643,1.229-3.964,1.523-1.138,1.104-1.933,2.493-2.687,3.871-1.5,2.741-3.566,4.663-6.173,6.34-4.955,3.189-12.069-2.228-11.27-7.771-4.584.163-11.728-1.874-14.781,2.805-1.286,1.972-5.703,2.935-7.877,1.359-2.196-1.592-1.637-4.991-2.657-7.214-2.016,1.447-4.121,1.963-6.335,2.968-2.435,1.105-4.604,2.387-7.195,3.157-5.629,1.674-7.872-3.436-5.678-7.794 1.255-2.494-1.245-2.357-3.018-3.15-2.494-1.115-5.068-2.028-7.547-3.172-5.548-2.561-11.015-6.173-15.931-9.794-1.77-1.304-3.236-2.938-5.531-3.257-.785-1.039-1.653-2.013-2.44-3.051-.75-.137-1.758-.017-2.362-.6-1.413-1.364-3.771-1.729-5.512-2.511-.996-.447-1.891-1.059-2.92-1.44-1.416-.525-1.905-1.582-3.218-2.394-2.66-1.646-5.165-3.444-7.504-5.522-1.626-1.445-5.019-3.05-5.769-5.189-.59-1.687-3.139-3.532-4.162-5.14-1.737-2.729-3.445-5.479-5.029-8.301-6.019-10.726-9.407-22.589-9.362-34.934 .047-12.929 4.524-24.085 10.252-35.433 2.296-4.547 4.06-9.67 5.485-14.547 1.812-6.198 5.459-11.465 8.72-16.954 2.845-4.788 6.535-8.857 9.456-13.536 .491-.787 1.059-1.696 1.924-2.125 1.33-.66 1.211-1.464 1.807-2.927 1.224-3.006 2.777-6.056 4.703-8.675 4.276-5.818 8.587-11.309 14.899-14.9 3.293-1.875 6.676-3.584 10.561-3.016 3.522.514 5.499-.616 8.1-3.311 1.741-1.804 13.32-9.958 14.975-8.06 .091.104 2.851-.564 3.494-.325 2.169.805 4.305,1.712 6.486,2.51 1.527.559 3.036,1.282 4.144,2.512 .841.336 3.154-.468 3.355.913 .486-1.165 1.421.047 2.134,0 1.247-.079 2.269-.854 3.352-1.371 2.711-1.294 5.705-.225 8.509.022 2.967.261 5.665,1.391 8.562,1.681 3.29.329 6.222.494 9.42,1.47 2.472.754 4.909,1.087 7.434,1.561 2.405.451 4.313,1.691 6.603,2.422 5.677,1.812 11.021,4.302 16.252,7.17 10.895,5.973 20.13,13.882 28.877,22.645 3.333,3.338 6.752,7.571 9.176,11.61 3.194,5.322 6.659,9.948 9.129,15.698 5.13,11.945 8.765,23.979 9.61,37.06 .827,12.797-1.336,25.414-4.409,37.785-.367,1.478-.743,2.954-1.122,4.43-.519,2.02-.646,1.062-1.607,2.457-1.274,1.85-1.83,4.249-2.786,6.268-2.031,4.29-4.719,7.788-6.905,11.829-1.041,1.925-3.062,6.644-5.501,7.145-.873.18-2.9,3.987-3.69,4.938-.765.92-1.527,1.848-2.168,2.861-.92,1.455-1.85.821-3.107,1.961-3.79,3.435-6.598,7.614-10.832,10.688-4.85,3.52-9.555,6.98-15.03,9.527-1.958.911-4.111,1.462-5.901,2.712-2.231,1.557-2.85,4.211-4.576,6.196-3.158,3.624-9.418,3.984-10.863-1.68m-72.281-191.531c1.56-1.932 3.62-3.593 4.269-6.101 .094-.569-.748-.19-.955-.416-.792-.862 1.047-1.694 1.26-2.327 .91,1.142.909,1.485 2.167.28 1.615-1.548 3.365-2.956 5.219-4.209 1.663-1.124 3.602-2.538 5.561-3.068 1.347-.365 3.504-.315 4.438-1.543-1.193-1.211-2.769.208-4.085.083-.497-.047-.713-1.295-.88-1.626-.769-1.525-1.096.764-1.588,1.219-1.561,1.443-1.98-1.267-3.029-1.292-1.34-.031-2.158,2.646-2.922,3.446-1.497-2.927-8.947,2.871-9.454,4.88 2.402-.346 2.958,4.766 1.132,5.462-1.68.642-1.518-4.65-1.743-5.768-2.798,2.71-5.431,5.088-7.286,8.571-.507.952-4.439,6.023-3.408,7.142 .411.446 2.133-.123 1.583,1.146-.439,1.011-1.761.659-2.456,1.333-1.553,1.504-1.046,6.851-.836,8.716 .169,1.499 1.012,2.773.874,4.291-.11,1.207.143,2.313.639,3.412 .262.58 4.349,4.589 4.291,2.535-.033-1.158-2.576-2.268-2.158-3.424 .527-1.456 2.024.242 2.964.132 .355-1.505 1.201-3.388.305-4.879 .101,1.313-4.625-3.058-.61-3.355 .309.746.061,1.97.915,2.439 .641-3.195 1.861-6.244 2.439-9.454-.677-.019-1.38-.508-1.829.305-.428-.826.058-2.891 1.234-2.97 .721-.049.897,1.311 1.719.441 1.187-1.258 2.048-3.695 2.23-5.401m39.343-12.809c-.648.166-1.378-.808-1.831,0 0-2.672-2.631-1.086-2.066.73 .326,1.048-.122,1.973-1.287,2.015-1.304-.14-.383-2.177-.999-2.19-.775-.016-3.924.898-3.097,2.145 1.765,2.661-1.217,2.547-1.395,1.266-2.03.572-2.717,2.769-4.269,3.963 .851.155 2.233,1.539.842,2.106-1.89.771-2.516-1.035-3.979,1.331-2.663,4.303-4.166,9.544-4.053,14.601 .063,2.832.647,5.685 2.005,8.191 .227.644 1.429-.166 1.524.608 0,1.035-.05,1.747.613,2.613 2.76,3.604 5.768,7.252 10.672,7.451 0-2.273-1.572-1.445-2.45-3.062-.663-1.224.11-1.053.984-1.309 .63-.185.212-1.945.149-2.322-1.099-6.621-2.478-13.775-1.123-20.449l-2.135.611c.103-.79-.482-2.629.682-3.016 .773-.257 1.147,1.012 1.147,1.492 1.664-.984 1.916-3.149 2.6-4.775 .757-1.802 2.825-4.667 4.193-6.039 .546-.547 1.625-1.135 1.748-1.995-.642-.284-1.397-.908-1.125-1.708 .667-1.956 1.5,1.033 1.428,1.708 1.418-.157 5.23-2.436 5.188-3.661 .082-.117 2.428-1.33 1.036-2.414-.32-.249-1.089,1.104-1.17,1.2-1.087,1.291-1.548-.705-2.075-1.379-.952-1.217-1.321,2.046-1.757,2.288m-24.704.305c-1.089,1.094-2.192,2.301-3.654,2.9-.349.029-2.149,1.392-2.445,1.674-2.489,2.383-4.569,5.407-6.177,8.442-3.996,7.546-6.492,16.538-6.022,25.106 1.795-.072 1.56-.525 3.331-.004 1.617.476 3.675.125 5.368.31 1.836.199 1.082.032 1.917-.507 .756-.488 2.898.39 3.697.51 6.477.971 4.374-12.096 4.596-15.863 .167-2.832 1.479-7.439 2.97-9.827 1.635-2.618 4.419-4.472 5.036-7.664 .201-1.04 1.021-6.444-.448-6.989-2.735-1.014-5.565,1.556-8.169,1.912m64.351,10.98c.861-.859 2.942.385 1.972-1.961-.354-.859-2.995-3.656-3.856-2.119-.667,1.191-2.189.818-2.696-.325-.28-.633 2.822-2.814-.287-2.748-.826.018-3.526,1.793-3.892.235-.441-1.884-.854-2.13-2.927-2.239-.966-.051-.716,3.851-3.313,2.471-1.188-.63.91-2.307.056-2.77-.548,1.286-3.59,1.858-2.742,3.661 .621-3.143 3.403,1.849 3.353,1.829-1.537-.013-2.845-.442-3.964-1.524 .235,1.542-1.151,2.18 1.04,2.772 2.375.641-.018,3.017-.135,4.399-.423,4.989-5.714,7.774-6.395,12.652 .089-1.208 2.172-.273 1.995.842-.401,2.517-3.017.241-3.217-1.147-4.17,4.805-8.368,9.584-12.584,14.349-2.76,3.118-4.562,8.548-9.659,7.803-2.449-.358-4.608-1.744-6.62-3.098-.817-.549-3.445-2.026-3.846-2.814-2.712-5.339-5.532,2.383-2.914,5.524 .76.877.01,1.333.245,2.331 .986.778 2.076,1.43 3.231,1.925 2.106.904 4.036,1.533 5.956,2.836 2.232,1.514 4.823,2.125 6.933,3.863 2.546,2.098 5.024,4.304 7.39,6.603 8.599,8.356 15.573,18.429 19.47,29.823 1.945,5.688 2.961,11.485 3.547,17.45 .406,4.131 2.07,6.883 6.385,7.476 2.767.381 5.19-5.692 6.02-7.527 1.691-3.746 3.63-9.099 6.34-12.261 .354-.412.907-.944 1.521-.782 .283-1.026.81-2.021 1.52-2.817 .844-.946 3.43-2.188 3.961-.242 .791,2.898-.996,6.716-1.819,9.464-.908,3.018-1.801,6.046-2.988,8.969-1.009,2.482-2.557,4.502-3.37,7.075-1.961,6.205-4.584,12.182-6.453,18.418 2.943-.734 2.748-4.559 5.043-6.044 1.557-1.008 2.013-4.042 2.782-5.827 1.179-2.732 2.443-5.428 3.614-8.165 .905-2.116 1.227-4.5 2.318-6.519 .998-1.846 2.196-3.502 3.04-5.438 2.144-4.917 4.468-9.715 6.654-14.593 1.906-4.25 2.433-9.075 1.854-13.676-.465-3.698-2.477-10.225-5.308-3.942-1.375,3.052-2.452,7.125-6.025,8.288-1.715.558-2.889,2.142-4.561,2.818-2.343.948-4.263.561-6.533.209-4.694-.728-9.08-1.117-13.553-2.923-1.002-1.504-3.298-1.546-4.104-2.91-.854-1.447-2.455-3.151-2.742-4.59-.416-2.081-1.475-3.618-1.351-5.844 .123-2.2.712-4.421.209-6.619-.455-1.988-1.646-2.697-3.164-3.814-1.704-1.254-2.798-4.162-3.728-6.017-2.255-4.498-1.23-9.059.15-13.638 1.426-4.73 5.933-6.566 9.37-9.731 3.508-3.229 5.085-7.842 7.662-11.74 2.553-3.863 7.321-5.286 10.811-7.987-.621-.755-2.639-3.434.153-2.639 1.288.368-.744,2.085.151,2.945m-25.009-6.405c-3.986-2.351-7.207-.273-11.274.602-1.228.264-3.228,1.952-4.26,2.788-1.702,1.378-3.141,3.092-4.26,4.969-5.68,9.527-1.68,19.875.579,29.763 3.562-1.181 5.29-5.036 7.517-7.734 3.076-3.727 6.54-7.287 9.874-10.788 3.041-3.192 6.158-6.613 6.91-11.126 .299-1.788.059-3.199-1.184-4.549-.902-.981-1.315-1.469-1.223-2.873 .139-2.063-1.227-.892-2.679-1.052m-72.586,2.744c-.544.697-.179,1.827-.762,2.42-.712.724-2.735.12-3.838,1.025-3.014,2.474-5.826,6.023-8.171,9.104-.844,1.108-6.096,8.755-4.272,9.158 1.328.293-.105,4.31-.235,5.016-.45,2.445.147,1.882-1.935,2.25 .174-1.32 1.578-3.9 0-4.879-1.731,5.903-4.633,11.679-3.355,17.994 4.339,6.32 8.474-1.673 10.251-5.404 .932-1.956 3.618-4.919 3.473-7.103 2.958.52.643-3.807 1.205-4.915 .682-1.342 1.99,1.821 3.32.474 .821-.831 1.518-1.771 2.292-2.644 1.269-1.429-.048-2.591 1.112-4.198 .022,1.909 3.299,1.175 2.927-.501-.327-1.476-2.681-3.196-.487-4.378-1.757-.867-.56-2.893.61-3.661 1.142,1.825-.592,3.998.609,5.795 2.259-1.793 4-7.874 2.136-10.37 1.789-.183 6.801-4.931 3.478-5.851-1.263-.35-4.134,2.308-3.478-.553-1.722-.005-3.296.626-4.88,1.221m121.384,17.384c-.786-4.496-4.127-6.484-7.58-8.756-4.191-2.759-6.864-3.977-12.048-3.309-4.124.531-7.995,1.38-10.676,5.017-1.807,2.451-2.991,8.054-.928,10.605 1.974,2.441 5.71,2.746 8.432,3.895 1.888.797 2.943,2.319 4.402,3.655 1.597,1.462 4.447.393 6.555.967 1.426.388 4.405.33 5.539,1.182 .972.73 2.818,2.369 3.656.528 1.931-4.249 3.472-9.072 2.648-13.784m13.723,35.073c.604-1.493 1.404-2.934 2.258-4.295 1.021-1.629 2.662-2.604 3.512-4.128 2.478-4.441 2.518-10.537-.279-15.059-.864-1.42-3.537-3.402-4.854-4.521-2.602-2.209-4.834-.366-7.509.588-1.623.579-2.129,4.219-3.018,6.02-.573,1.163-1.158,2.333-1.504,3.589-.062.225-.469,4.386-.004,4.131 1.128-.615.118-1.41 1.98-1.475 1.801-.062 3.074.428 4.538-1.014 .341.884.545,1.799.611,2.745 1.605-.069 1.719.974 1.216,1.844-.365.631-1.987,2.813-2.755.994-.302-.716 1.49-2.461.729-2.824-1.894-.902-3.699,1.609-5.593-.014-2.345,3.781 2.864,3.456 3.944,4.9 1.233,1.651-2.938.883-2.981,2.834-.079,3.539-.621,4.801 2.135,7.313 2.289,2.088 5.681-.05 7.574-1.628m-38.123-25.617c-4.6-.892-11.29-2.878-15.911-1.789-4.135.975-7.862,4.624-9.553,8.44-2.936,6.629-1.214,16.251 5.954,19.423 2.145.948 6.081,2.948 8.48,2.172 1-.324 2.055-.561 3.103-.798 2.188-.498 1.71-.575 1.831-3.048 .235-4.78 1.803-9.452 4.666-13.303 1.1-1.479 3.109-2.739 3.751-4.5 .906-2.488-1.313-4.574-2.321-6.597m-93.322,0c-7.654.712-13.958,9.079-16.165,15.857 3.762-1.229 7.547-2.475 11.525-2.732 1.7-.11 3.278.313 4.516-.672 .914-.728 2.207-.547 3.265-.85 1.811-.519 4.821-2.97 2.231-4.527-2.844-1.709-3.233-4.794-5.372-7.076m112.842,8.538c-3.566-3.209-7.979.072-12.018-.326-4.339-.427-7.772,4.219-9.28,7.697-1.739,4.013-2.549,8.692-.493,12.754 1.849,3.653 5.568,4.812 9.321,5.548 2.276.412 6.783,1.2 8.906-.147 2.877-1.826 5.432-4.102 7.369-6.824 2.446-3.437 3.905-8.358 2.303-12.431-1.275-3.241-2.175-6.478-6.108-6.271m-147.002,4.272c-2.844,3.509-5.187,7.565-6.542,11.886-.554,1.766-1.399,4.045-.521,5.852 .896,1.845 3.059-.855 3.775-1.526 2.851-2.669 4.024-5.541 5.618-9.065 .941-2.082 2.15-4.044 2.528-6.337 .372-2.25-1.209-2.999-2.113-4.776-1.042,1.233-1.729,2.713-2.745,3.966m107.661,91.494c1.466-4.592 2.389-9.027 3.353-13.725-.143,2.449.71-.8.709-1.193-.005-1.123-.224-2.259-.099-3.382 .343-3.071.323-6.171.167-9.253-.304-5.982-1.963-11.372-3.938-16.968-.882-2.498-1.422-5.169-2.637-7.538-1.157-2.255-2.868-4.157-4.146-6.338-2.945-5.025-6.565-9.66-10.529-13.919-3.497-3.756-8.681-6.669-13.07-9.223-4.202-2.445-8.803-5.426-13.545-6.668-4.867-1.275-9.418-1.736-14.339-2.431-3.554-.502-7.927-1.979-9.022,2.801 4.71.372 11.048-.266 15.51,1.365 2.307.843 4.099,1.509 6.589,1.816 3.049.376 5.429,2.051 8.121,3.376 10.32,5.08 18.476,11.377 24.945,21.08 3.098,4.646 5.687,9.717 8.313,14.637 2.942,5.511 3.535,12.903 3.892,19.035 .69,11.896-.914,24.232-7.325,34.476-5.617,8.973-11.617,16.714-20.521,22.6-7.539,4.983-16.742,10.123-26.036,10.169-1.912.01-2.707.694-4.306,1.264-1.476.525-3.364.096-4.885.016-5.29-.278-10.704-.315-15.918-1.556-11.405-2.717-21.436-7.891-29.911-15.952-17.954-17.078-24.438-40.72-18.138-64.726 1.557-5.931 3.86-11.018 7.196-16.152 1.503-2.313 3.253-4.648 3.98-7.351 2.551-1.78 4.334-4.37 6.379-6.662 1.888-2.115 4.282-3.447 6.609-5.038 1.243-.849 2.485-1.7 3.705-2.582 .973-.703 2.506-4.178.395-3.216-2.064.94-4.147,2.626-5.904,4.04-2.059,1.657-4.181,2.726-5.986,4.674-4.091,4.415-8.334,7.891-11.612,13.091-6.246,9.91-10.168,22.019-11.008,33.694-1.711,23.794 11.012,47.384 31.017,59.989 17.518,11.038 44.289,16.316 63.471,6.285 4.861-2.542 9.32-5.974 14.229-8.382 5.408-2.654 9.521-7.929 13.068-12.66 1.328-1.771 2.609-3.534 3.599-5.518 .844-1.69 1.686-4.119 3.286-5.262 2.677-1.909 3.363-5.663 4.342-8.713m62.824-57.948c5.807-1.191 7.988-3.911 11.437-8.535 .747-1.002 1.367-2.099 1.718-3.305 .419-1.443 1.512-2.252 1.881-3.689 .636-2.474-.15-3.723-1.237-5.756-1.849-3.458-3.26-7.928-8.227-6.908-1.287.265-2.621,5.12-3.191,6.275-.855,1.735 1.091,2.922.598,5.098-.579,2.559-2.041,3.383-4.896,3.412-1.008.01-1.677-.228-2.556-.624-.947-.427-2.768.802-3.663,1.072-2.005.604-4.436.446-6.334,1.264-2.085.898-.693,4.23.676,5.167 2.556,1.75 6.843-7.029 8.498-3.828 2.444,4.729-2.986,12.074 5.296,10.357m-97.593,90.275c7.55-2.631 13.227-8.923 18.198-14.904 5.79-6.968 10.179-15.083 12.604-23.829 .11,1.171.725-1.861.581-1.108 2.012-10.586 2.146-20.83-1.003-31.201-3.09-10.174-8.3-18.944-15.099-27.062-6.356-7.59-16.185-13.327-25.56-16.384-1.841-.6-13.274-3.719-13.297-1.819-.011.898-.723,2.865-2.002,1.443-.623-.692 1.456-1.885 1.788-2.249-.972.016-2.494-.794-3.053.485-.323.739-1.601,2.456-2.311,1.066-.429-.838-.241-1.803-1.386-1.774-2.021.052-1.426,1.172-2.835,1.937-.785.382-1.098.115-.937-.8 .125-1.121-.416-1.384-1.623-.791-2.418.244-4.812.688-7.173,1.26-.934.226-4.241.541-4.752,1.569-.572,1.149 1.223,1.751-.437,2.317-1.901.648-1.05-1.544-2.871-1.793-1.95-.266-4.184.937-5.859,1.771-.743.37-10.114,5.767-9.469,6.535 .392.467 1.645-.357 1.35.839-.155.632-1.016,1.433-1.707.936-1.471-1.058-3.412-.582-3.597,1.388 1.633-.543 2.209,2.125.624,2.528-1.211.308-.722-2.171-1.234-2.528-4.291,3.293-7.708,7.646-10.064,12.504 1.041.328 2.541.406 1.556,1.861-.799,1.18-1.651-.134-2.607-.163-2.304-.067-4.83,8.251-5.507,9.998-3.472,8.962-4.683,17.951-4.599,27.531 .072,8.083 2.407,16.95 6.423,23.932 2.019,3.511 3.911,6.932 6.467,10.094 2.953,3.654 6.791,6.205 9.856,9.701 .369-.63.342-2.312 1.32-2.482 1.374-.238.922,2.11.641,2.651-1.4,2.696 3.012,2.362 4.444,1.968 .083.746-.686,2.366.206,2.856 1.156.635 2.155-1.164 3.277-.813 .834.261-.611,2.816 1.602,3.296 2.838.615.595-2.8 1.32-4.12 .226.646 1.427-.164 1.525.61-.234,1.671.491,3.237.609,4.88 1.069-1.367 2.33-1.864 2.737.435 .354,1.994 5.623,2.579 7.212,2.943 6.241,1.432 12.695,2.028 19.093,1.818 5.318-.175 10.222-1.466 15.208-3.105 2.279-.75 4.708-1.655 7.027-2.296 1.215-.336.613-1.593.981-2.434 .573-1.31 1.594.616 2.333.503m-80.211-108.878c.083-.417-.188-1.191-.305-.61-.084.414.19,1.189.305.61zm175.366,2.746c2.871,1.067 4.721-1.465 3.048-3.661-.517,1.631-2.643,1.957-3.048,3.661m-43.003,6.403c-1.376.122-1.017.428-2.566.023-1.414-.408-2.808-.869-3.339-2.396-.564-1.619-1.438-.871-3.117-1.055-2.104-.218-4.146-.79-6.227-1.146-2.543,12.25 17.28,19.32 25.683,12.842 1.548-1.194 3.073-5.14.265-5.728-2.757-.577-4.696-1.581-7.039-1.93-2.304-1.116-3.559-3.616-5.627-4.701-1.194-.626-1.853,1.655-.657,2.133 .715.286 2.044.949 1.78-.371 .354-.356.89,2.032.844,2.329m59.471,2.44c-1.062,3.993-3.54,7.384-6.804,9.874-3.362,2.564-4.444,3.73-4.351,8.14 .137,6.499 8.252,9.075 13.594,7.666 3.157-.833 8.92-3.557 9.423-7.047 .646-4.468-.229-8.969-1.432-13.266-.442-1.581-.954-3.148-1.686-4.622-1.047-2.11-1.495-2.949-3.712-3.174-1.172-.119-2.117-1.24-2.831-.307-.629.822-1.303,2.181-2.201,2.736m-25.924,5.795c-.302,4.776-3.985,8.68-3.873,13.527 .066,2.859.168,5.33-.42,8.174-.676,3.27-2.034,6.187-2.468,9.514-.367,2.815-1.366,5.584-2.074,8.327-.358,1.387-.693,2.779-.972,4.184-.509,2.581-.362.564-1.174,2.021-1.36,6.847-3.597,13.471-5.939,20.032-2.088,5.85-3.614,12.151-6.51,17.611-2.986,5.632-5.041,11.769-7.023,17.81-1.69,5.15-4.739,10.464-5.439,15.847-.351,2.697.827,13.258 6.104,9.389 7.812-5.729 8.538-17.782 11.159-26.456 1.775-5.875 3.606-11.741 4.984-17.728 .669-2.905 1.326-5.868 1.599-8.842 .127-1.39.133-2.806-.152-4.179 1.204-1.192 1.91-2.76 2.397-4.357 3.81-12.498 6.389-25.699 9.295-38.442 1.352-5.929 2.372-11.936 3.731-17.858 .792-3.449 1.87-6.834 2.179-10.378 .124-1.425.37-4.036-1.135-4.907-1.775,2.005-1.889,5.19-4.269,6.711m-14.944,112.234c.078-.828 3.562-1.432 4.237-1.493 2.832-.256 4.91-2.555 7.659-3.083 1.002-2.314 3.833-3.055 5.096-5.188 1.535-2.59 4.853-3.654 6.616-6.241 1.706-2.501 4.454-3.595 6.247-6.104 2.036-2.851 4.074-5.634 6.245-8.387 1.853-2.35 3.679-4.828 4.703-7.668 .498-1.38 1.824-2.588 2.566-4.239 3.3-7.339 6.463-14.264 8.353-22.064 2.175-8.979 5.706-20.993 1.955-29.772-1.088.604-.547,1.526-.454,2.444 .179,1.756-1.947.855-2.969,1.074-1.991.426 1.602,3.733-1.345,3.279-1.834-.283-.413-2.699-2.841-1.348-.723.402-3.103,1.05-2.914,1.988 .059.291.864,2.331-.095,2.309-1.088-.026-.575-2.241-1.882-2.354-2.171-.186-4.385-.069-6.35-1.113-2.676-1.419-4.226-4.14-5.947-6.532-2.354-3.272-1.765-6.373-3.263-9.813-2.319.961-3.894,3.35-4.886,5.551-.294.651-.496,3.012-1.52,2.835-1.126-.194-1.504,3.871-1.685,4.688-1.446,6.524-2.554,13.133-4.414,19.559 .691.998.888,4.32 2.345,4.36 1.371.038 4.35-.053 4.425,1.954 .097,2.575-2.82,5.946-4.126,8.018-1.961,3.107-4.024,6.15-6.19,9.118-3.516,4.815-5.36,8.562-6.328,14.497-1.042,6.396-2.47,12.724-4.071,19.004-.901,3.532-2.769,6.949-3.302,10.55-.205,1.383-.087,3.132 1.566,3.487 1.146.246.473-1.757 2.566-1.757 .076.623-.602,1.948.003,2.441m-37.512,22.568c4.52-.611 6.11-4.458 8.344-7.853 1.409-2.144 2.809-4.305 3.952-6.605 .959-1.929.907-4.84 1.938-6.524 .03-.051.492,1.061.975.462 1.414-1.754 2.126-3.991 2.724-6.128 1.358-4.864 3.03-9.494 4.77-14.24 3.78-10.312 8.191-20.29 11.904-30.658 1.786-4.985 2.871-10.194 4.632-15.167 1.686-4.764 3.501-9.901 4.35-14.888 .899-5.282 2.682-10.542 3.168-15.871 .054-.59.438-6.178-1.312-4.262-1.418,1.551-2.256,3.729-3.145,5.595-4.766,10.004-8.312,20.651-13.212,30.579-5.162,10.46-8.42,21.831-13.14,32.544-1.728,3.919-4.346,7.396-5.918,11.312-2.088,5.201-4.493,9.943-7.195,14.86-2.79,5.077-5.294,10.32-7.729,15.576-1.296,2.798-2.521,5.679-1.814,8.828 2.029,1.344 4.14,2.787 6.708,2.44m22.263-101.559c-1.117,2.466-2.669,4.717-3.652,7.247-.888,2.286-1.483,4.856-3.111,6.765-2.991,3.506-5.174,8.349-7.538,12.531-1.097,1.94-2.539,3.389-3.689,5.174-1.637,2.526-2.732,5.349-4.271,7.93-3.216,5.384-7.161,10.327-10.402,15.741-5.528,9.233-11.867,17.97-17.572,27.078-2.384,3.806-4.636,8.947-3.147,13.51 1.734,5.317 8.041-.33 9.797-2.556 1.575-1.998 2.559-4.185 3.413-6.559 .553-1.533 1.917-2.179 2.586-3.685 2.257-5.081 5.477-9.921 8.097-14.835 5.763-10.809 12.681-21.113 18.786-31.726 2.974-5.171 5.99-10.264 7.841-15.966 1.793-5.526 3.488-11.244 5.744-16.592 .487-1.155 1.275-2.145 1.457-3.423 .245-1.72.765-1.856 1.625-3.433 .657-1.206 1.08-2.535 1.507-3.835 .311-.947 2.876-7.79 1.376-8.312-3.211,4.82-6.45,9.66-8.847,14.946m31.717,14.639c-1.035,1.203-2.88.88-4.265,1.202-1.483.346-2.883,2.812-.87,3.295 4.156.998-1.801,2.203-1.926,2.397-1.007,1.562.845,2.38-.765,4.026-1.209,1.235-.523,2.833.896,1.534 1.245-1.139 2.13-2.626 3.139-3.962 1.476-1.957 2.22-3.478 1.987-5.905-.066-.691.229-1.053.945-1.115 .841-.071 2.394-1.173.859-1.472m-35.071,21.35c-.327-1.14.755-.871.611-1.832-1.027-.387-1.263,1.547-.611,1.832zm-7.013,3.658c-2.051,3.153-3.317,6.753-5.504,9.824-1.986,2.792-4.784,5.661-4.258,9.392 1.643-.084 3.369-1.236 3.193-2.818-.263-2.357 1.477-.832 2.757-1.263 1.577-.53 2.27-2.48 3.445-3.53 .359-.454.786-.561 1.279-.319 .543-1.423 1.181-2.807 1.829-4.184 .487-1.036 4.918-9.388 2.994-10.04-1.632-.554-4.186,2.501-5.735,2.938m-41.176,25.619c-1.222.634-2.842.984-4.269,2.134 .235.51-.437,6.402 1.23,5.369 2.759-1.71 5.743-4.175 7.918-6.587-.476-.537-1.46-.373-2.042-.758-.998-.658.91-2.385 1.595-2.514 1.599-.304.461,3.208 1.058,3.576 .261-.848 1.107-1.194 1.832-1.526 .106-1.319.106-2.645 0-3.964-2.812.723-4.808,2.965-7.322,4.27m26.84,14.943c1.556-2.593 3.883-5.021 4.846-8.052 .735-2.315 2.067-8.577.947-10.855-2.136,2.306-4.578,4.306-7.162,6.088-2.608,1.8-3.394,4.839-4.987,7.462-1.379,2.268-2.397,4.42-2.608,7.104-.27,3.429-2.621,6.648-1.404,10.147 1.366-.395 3.115-1.104 3.846-2.421 .543-.979.823-2.607 1.73-3.329 .805-.64 1.328,1.391 2.123.04 1.146-1.949 1.507-4.245 2.669-6.184m-39.648,0c.914-.96 2.246-.69 2.745-2.135-1.766.261-.865-3.019-.033-3.338 .685-.263.964,2.986 1.253,3.338 .999-1.686 3.691-2.644 3.976-4.758 .039-.297-1.354-.39-1.53-.641-.477-.678.915-1.508 1.216-1.92-1.117-.391-.683-1.956-1.222-2.745-2.293,1.315.509,3.913-2.837,1.352-1.642-1.257-2.02,2.777-2.957,3.223-1.2-1.383-1.85-1.688-3.622-1.153-2.686.811-3.729-.292-3.965,2.411-.198,2.262-4.417-3.68-4.919-.343 1.021-.116 1.174,1.33.441,1.784-1.804,1.117-1.319-1.159-1.465-1.783-.07-.296-1.769.065-2.025-.001 .101,4.563-1.982.012-2.827.283-1.556.498-.889,1.776-2.473.499-2.083-1.68-1.467.117-2.63,1.048-1.543.148-2.27-4.314-3.119-.231-.548,2.637 2.061,6.158 4.949,4.806-.149,1.462.435,2.883 2.134,2.745 .004-.767.404-3.812 1.789-2.237 1.433,1.629-1.136,2.123-.374,2.982 2.231,2.515 8.683.746 11.413.099 1.187-.281-.243-4.839 2.311-.999 .779,1.172 2.268-.631 2.61-1.297 .443-.863-1.278-1.402-1.278-2.817 .971.373.652-.822 1.525-.61 .978.477.567,1.645.914,2.438m.915,1.83c-.924,1.348-2.703,1.933-3.497,3.393-.353.647.317,2.908-.789,2.941-1.616.048-2.256-.684-3.644.596-1.322,1.218-3.096,2.415-3.285,4.294-.483,4.806 4.038,3.416 6.76,2.263 1.463-.62 3.582-.963 3.272-2.703-.395-2.224 1.861-2.326 2.097-.108 .9-.19 4.575-.83 4.08-2.412-.686-2.19.16-2.949 2.326-1.551 2.14-4.54 5.778-8.276 7.316-13.115-.767.285-1.478.184-2.134-.305 .799-.414.229-1.515.912-2.015 1.194-.873 1.234.92 1.832,1.403 .319-1.218 1.589-3.37 0-4.269-1.944,2.181-4.86,3.205-6.708,5.49 1.314.771 3.533,2.604 2.712,4.39-.302.655-1.315.659-1.877.488-1.47-.445.123-1.391.081-2.133-1.761.343-1.272-1.741-1.526-2.745-2.668,2.005-4.547,5.16-7.928,6.098" fill-rule="evenodd"/>
 <path d="m56.673,43.655c.606.004 1.625-.054 2.094.45 1.083,1.165-1.385,1.576-1.484,1.99-.311-.787-.514-1.6-.61-2.44" fill-rule="evenodd"/>
 <path d="m224.72,108.007c1.009,1.339-2.16,2.705-.348,4.106 1.482,1.147 3.062-1.351 2.909-2.62-.106-.873-2.478-5.594-1.071-6.089 .894-.314 2.185,1.982 2.432,2.597 1.045,2.608 1.098,8.204-2.852,8.305-1.543.04-3.776-.679-4.539-2.138-1.167-2.23 1.295-4.522 3.469-4.161" fill-rule="evenodd"/>
 <path d="m45.389,106.178c.854.705-1.293,1.659-1.831,1.524-1.237-1.227.224-2.44 1.525-2.44-.059.231.095,1.709.306.916" fill-rule="evenodd"/>
 <path d="m54.843,119.598c-.022-.76-1.24-1.927.422-2.372 .728-.194 1.082,1.383 1.408,1.761-.597.242-1.207.446-1.83.611" fill-rule="evenodd"/>
 <path d="m60.942,123.256c.298-.11-.852,1.598-1.551.925-2.172-2.091.412-2.622 1.551-.925" fill-rule="evenodd"/>
 <path d="m92.356,163.514c.005.028 1.815-.832 2.125-.142 .582,1.291-1.732,3.809-2.125,1.668-.88,1-1.766,3.117.304,3.353 .234,1.908-1.433,3.901-2.744,1.526-.676.872-.837,2.113-1.83,2.745 .483.862 2.738-.912 2.847.52 .157,2.075-3.215,2.819-2.847.395-3.945,2.124-6.543,5.781-11.293,6.72-1.054.209-1.669-.089-1.899.991-.205.963-.657,1.119-1.583.714-1.521-.667.201-1.274-2.047-1.454-1.8-.145-3.795-.579-5.355-1.526-.736-.446-2.471-1.955-3.425-1.538-.92.903-3.036-.062-2.193-.852 1.951-1.831-3.147-3.022-4.229-3.055 .93-1.909-.016-3.505-.915-5.186-.651.738 0,2.792-1.629,1.707-1.907-1.27-.34-4.001 1.324-2.314-.259-1.505-1.818-.688-2.745-1.222-.587-1.31-.254-2.393-1.524-3.355 .032,5.708-2.537.781-.916.306-.726-1.161-2.878-1.309-3.275.083 .304,1.098-.045,1.463-1.048,1.096-.721-.093-.852-.485-.862-1.151-.026-1.678-3.212-2.228-4.678-3.01-1.88-1.002-3.656-2.222-5.161-3.738-.885-.892-1.335-.409-2.3-.143-.771.213-2.808-1.14-1.495-1.6 .726-.254 2.464-1.141.563-1.491-1.974-.363-1.223-2.134-1.704-3.78-1.386-4.739-2.602-8.261-.953-13.151 .599-1.776.734-3.187.73-5.012-.004-2.021 1.215-1.162 2.567-1.465 1.607-.358-.006-2.962.474-3.981 .798-1.696 2.224,1.374 2.824.714 .808-.887-.378-2.113-.057-2.935 .838-2.151 2.045.589 2.481.833 1.089-.96.703-2.752 2.44-3.05 .179.977 1.596,3.849 2.673,1.643 .077-.157.121-3.908 1.236-2.644 1.769,2.004.824,1.299 3.522,1.2 .618-.129.988.109 1.108.714 1.185-.368 2.167-1.165 3.354-1.524-.245,1.033 1.031,2.948 2.067,1.755 .632-.729.679-1.502 1.898-1.144 .481,2.454-.361,2.103 1.847,3.817 1.79,1.39 3.578,2.796 5.168,4.416 .978-.607.434-2.003 1.22-2.743 1.479.342 1.146,1.732 1.83,2.743 1.844-.91 1.36-2.64.573-4.111-1.04-1.943.599-1.532 1.809-2.057 2.428-1.053 4.416-4.324 4.633-6.638 1.758,1.395 4.132,2.779 6.058.812 .316-.323 1.382-.532 1.511-1.014 .192-.713-.51-1.732.113-2.366 .571-.581 1.838,1.01 2.248,1.167 .986.38 2.02-.139 2.971-.336 1.177-.244 1.445.002 2.322.609 1.146.792 1.457-1.247 2.466-.399 .113-1.016.215-2.033.305-3.051 .368-.02 1.627-.254 1.715.432 .174,1.359-1.812,4.752-3.024,5.344-1.705.831-4.487,3.061-5.424,4.733-1.022,1.823.5,4.038 1.244,5.656 .575-.948.768-2.064.92-3.142 .153-1.086 1.244-2.605 1.214-3.566 1.689,1.781 4.587-.898 6.525-1.077 3.321-.306 4.29.988 6.177,3.329 .724.898.248,1.671.248,2.708 0,1.412.972,2.547 1.88,3.52 2.804,3.007.288,1.723-1.345,3.673-1.434,1.712-3.725.79-5.818.843-1.281.032-2.775.041-3.824.903-.551.453-1.329,2.253-2.389.9-.504-.644.253-4.209-.132-5.367-.427-1.284-1.241-.28-2.131-.754-.424-.226-.59-1.296-1.02-1.664-1.573,2.947.732,5.682-2.631,8.043-2.137,1.501-3.952-.512-6.083-.762-1.33-.156-5.128-.435-5.861,1.119-1.395,2.963.883,2.531 2.985,2.883 .396-1.597-1.093-3.466 1.829-2.745-.114.816-.624,1.606-.609,2.441 .998.684 2.195.943 3.336,1.267 1.248.354 3.517-.345 4.46.146 1.16.604-.247,2.825 1.657,2.87 1.164.027 2.88-.66 2.745,1.205 .418-1.429 2.281-1.04 3.051-.306 .277,1.632-1.775,1.39-1.525,2.137-1.024.048-.511-1.2-1.22-1.526-1.717,1.705 1.385,3.901 2.265,5.147 2.167,3.07 2.434,8.959 2.006,12.541m-15.86-40.868c-1.826-.299-1.753-1.327-3.387-.132-.256.187-2.97,2.18-1.186,2.221 2.534.058-.865,4.892-.916,6.147 1.079.504 1.611,1.695 2.535,2.394 1.156.873 2.401.068 3.633-.132 1.664-.271 5.572,2.742 6.024-.186 .524-3.398-2.058-5.018-2.275-7.927-.166-2.218 1.448-3.391 2.715-4.938 1.582-1.932-1.181-1.013-2.184-.519-1.754.862-3.323,2.014-4.959,3.072m11.895,5.49c2.58-.18 3.432,2.119 3.66,4.271 2.568.99 5.304-1.505 7.625.608 1.224-2.014-.138-3.569-1.337-5.145-.903-1.187-.772-3.771-1.866-4.497-2.629-1.744-7.808,2.051-8.082,4.763m-26.533,26.229c6.95-8.103 3.512-21.771-5.047-27.332-9.108-5.916-25.116-.245-25.757,11.471-1.592-.945.518,9.125.872,10.047 1.919,5.007 5.932,8.964 11.023,10.692 .104-.278-.382-1.577.304-1.523 1.141-.62 2.321-.456 3.484-.021 2.348.877 3.685-.008 5.577-1.349 4.01-2.842 7.703-6.493 7.714-11.745 1.543.925.704-5.379.543-6.059-.383-1.624-1.429-2.729-2.431-4.04-.456-.645-.99-1.213-1.603-1.704-1.017-.694-.832-1.196-1.606-2.146-1.194-1.464-3.197-.75-4.792-1.103-1.342-.298-3.991-1.695-5.333-.813-.843.554-.011,2.661-.319,3.492-.462,1.247-1.76-1.291-1.844-1.657-1.693.405-2.681,2.99-4.524,2.893-3.204-.169 1.697-3.42 2.177-3.746 2.007-1.359 3.449-3.469 6.189-3.185 2.399.249 5.327,2.156 7.748,1.293 4.809,4.578 9.073,8.93 8.334,15.888-.358,3.37-1.264,6.774-3.351,9.51-1.951,2.559-5.061,3.866-7.119,6.322 3.943-.313 6.382-3.598 9.761-5.185m21.348-5.49c1.182,4.035 4.116,7.442 4.284,11.778 .068,1.767-.686,7.215-3.369,6.826 .052-4.599 2.021-7.578.138-12.236-.595-1.473-1.907-2.285-2.525-3.791-.806-1.967-1.369-1.456-2.942-.796 .071-.03-2.362-5.115-5.318-4.162-1.978.638-.282,4.165-2.771,4.516-.409-1.194.267-3.371-.897-3.677-2.067-.543-.009-2.736.889-3.225 .802-.438 3.314-.098 4.287.036 2.73.376 5.427,2.995 7.92,4.12 .039-.804.647-2.166-.144-2.772-1.797-1.38-4.526-2.161-6.676-2.758-1.494-.414-2.175-.653-3.552-.05-.981.43-2.292.762-3.352.395-1.301,2.298-1.884,4.896-2.753,7.367-1.367,3.885-4.771,8.31-8.887,9.535-4.5,1.34.467,9.631 2.49,11.462-1.82-2.051-2.612-5.672-1.525-8.235 1.504,1.324 4.215-.07 5.185,2.137-.84.728-1.955,1.023-3.049.914-.058,1.954 1.489,3.294 1.979,5.078 .457,1.663-1.413,1.362.006,2.887 1.099,1.182 8.89,5.815 10.042,3.894 .004-.007 2.638-.282 2.971-.353 2.618-.553 4.294-1.385 6.656-2.66 2.026-1.099 3.605-2.731 4.789-4.695 .586-.974 2.196-5.464 3.14-4.762 1.073-3.564.379-7.642-1.031-10.988-.687-1.629-1.343-4.444-2.729-5.63-.804-.686-2.316-.089-3.256-.155m-38.123,11.285c-.405-1.512-1.44-.476 0,0z" fill-rule="evenodd"/>
 <path d="m47.523,143.995c.905-.192 1.82-.294 2.745-.305 .024,1.564-1.166,2.758-2.745,2.134-.028,3.747 1.241,7.317 1.83,10.98-3.277.712-3.083-4.096-3.163-6.105-.069-1.72-.145-3.686-1.107-5.18-1.813.051-2.007,2.251-4.185,2.118-2.287-.141 1.733-2.586 1.666-3.55-.192-2.771.591-7.1 4.348-6.193-.363,1.782-2.603,2.383-2.744,4.271 .046.134 3.346,3.675 3.049,3.658 .609-.416-.11-1.292.306-1.828" fill-rule="evenodd"/>
 <path d="m132 147.96c5.133-1.838-0.192 5.049 0 0" fill-rule="evenodd"/>
 <path d="m193.611,17.733c-.431,1.121 8.688,5.555 9.719,6.433 4.574,3.899 9.312,7.5 13.653,11.679 9.147,8.804 16.517,17.947 22.653,29.072 1.486,2.694 2.903,5.431 4.106,8.265 .854,2.011 2.448,3.528 2.955,5.512 1.623,6.36 4.323,12.437 5.992,18.812 3.34,12.756 3.854,26.304 2.949,39.414-.884,12.814-3.4,25.629-8.544,37.44-2.372,5.449-5.175,10.696-8.063,15.885-1.455,2.614-2.92,5.222-4.412,7.814-.748,1.3-1.505,2.596-2.275,3.883-.92.035-1.781,1.349-2.255,1.988-2.516,3.396-5.974,5.916-8.423,9.297-3.098,4.285-7.781,9.003-12.454,11.512-3.488,1.873-5.971,5.199-9.521,7.144-4.742,2.599-9.438,5.474-14.11,8.197-3.71,2.163-7.604,3.362-11.492,5.172-1.185.552-3.309,1.726-4.668,1.138-.92-.397-5.372,1.944-6.299,2.227-9.347,2.854-19.138,3.606-28.754,4.373-8.389.668-15.335.13-23.685-.915-5.22-.653-10.148-2.356-15.345-3.11-5.847-.848-12.006-3.702-17.377-6.09-3.774-1.675-7.413-3.153-10.847-5.531-1.31-.906-2.628-.7-3.912-1.526-1.649-1.061-3.079-3.107-5.135-3.39-.761-.104-2.788-2.173-4.002-2.891-2.318-1.37-4.067-3.354-6.543-4.415-3.833-3.439-7.671-7.305-11.386-10.979-15.492-15.326-27.254-35.803-32.374-57.294-1.126-4.725-1.915-9.533-2.293-14.376-.3-.243-.401-.143-.306.303-1.99-12.018-1.119-24.239.295-36.267 .239-2.038 1.468-3.317 1.632-5.198 .264-3.021.925-5.993 1.723-8.914 1.718-6.292 4.165-11.735 6.844-17.625 4.5-9.896 9.966-19.329 16.856-27.515 3.725-4.426 7.541-8.789 11.723-12.792 3.821-3.658 8.404-6.437 12.074-10.05 3.183-3.134 7.661-4.549 11.235-7.066 4.797-3.378 11.018-6.164 16.458-8.325 4.076-1.618 8.399-2.662 12.523-4.155 2.088-.756 4.088-1.121 6.277-1.331 2.087-.201 3.636-1.329 5.781-1.5 5.554-.442 10.746-1.967 16.413-1.958 6.285.009 13.341-.402 19.541.574 6.602,1.043 13.506,2.011 20.066,3.791 2.067.561 5.028.204 6.737,1.688 1.769,1.536 3.23,1.812 5.604,2.242 3.241.586 6.222,2.664 9.19,4.035 3.832,1.766 7.698,3.452 11.476,5.323m59.47,128.703c1.734-5.744.836-11.799 1.222-17.689 .435-6.648.009-13.183-.99-19.759-.827-5.448-1.761-10.899-3.282-16.202-.754-2.626-1.653-5.215-2.779-7.707-.547-1.21-1.147-2.396-1.812-3.546-.774-1.342-.444-2.557-1.279-3.875-2.886-4.557-4.957-9.768-7.539-14.533-3.014-5.562-6.956-10.733-11.152-15.467-1.827-2.061-3.834-3.988-5.489-6.193-1.284-1.712-3.272-2.479-4.541-4.033-.646-.791-.267-1.467-1.316-2.005-.966-.495-1.553-.888-2.364-1.637-.891-.822-1.901-1.746-2.287-2.942-1.398.334-2.383-.987-3.242-1.829-1.566-1.535-2.995-2.467-4.824-3.469-1.904-1.043-3.177-2.986-5.154-3.89-1.155-.527-1.615.073-2.361-.895-.55-.714-1.392-1.208-2.157-1.649-2.405-1.389-4.717-2.711-7.309-3.744-3.661-1.458-6.719-4.228-10.632-4.813-5.314-.796-10.429-3.334-15.57-4.873-5.025-1.503-10.373-1.621-15.502-2.511-6.41-1.111-12.976-1.158-19.464-.983-5.866.158-11.68.529-17.379,1.865-2.27.532-4.568.353-6.853.991-2.785.777-5.458,1.839-8.259,2.593-9.895,2.667-18.92,7.342-27.663,12.312-5.023,2.855-9.91,5.985-14.418,9.608-2.244,1.804-4.392,3.731-6.388,5.808-1.949,2.027-4.055,3.316-5.685,5.44-3.364,4.385-8.143,8.104-10.755,13.02-.789,1.484-1.419,3.62-2.957,4.527-2.275,1.343-3.784,6.118-5.041,8.542-5.854,11.294-11.202,22.25-13.194,34.909-2.023,12.855-3.139,25.094-1.758,38.1 1.341,12.634 4.436,24.823 9.856,36.331 2.509,5.327 5.315,10.521 8.203,15.651 1.41,2.506 2.894,4.975 4.59,7.298 1.113,1.524 3.249,5.499 4.947,6.3 2.829,1.333 3.515,4.829 5.636,6.617 4,3.372 7.685,7.037 11.744,10.407 9.767,8.109 20.991,14.552 32.797,19.172 4.646,1.817 9.752,4.546 14.771,4.975 1.797.154 2.709,1.011 4.277,1.47 1.694.496 3.565.406 5.223.999 2.532.906 5.213.897 7.866.914 2.46.015 4.729,1.118 7.15,1.075 2.303-.04 4.187.088 6.393.432 .774.12 1.918-.613 2.77-.626 1.703-.024 3.397-.002 5.104-.066 12.041-.458 23.747-2.834 35.307-6.17 2.264-.653 3.949-1.678 5.991-2.729 2.179-1.122 4.435-1.408 6.568-2.732 5.224-3.24 11.097-5.179 16.27-8.556 10.129-6.612 19.467-15.234 27.306-24.419 8.058-9.44 13.353-19.805 18.61-30.826 4.233-8.881 5.845-19.233 8.794-28.988" fill-rule="evenodd"/>
</svg>
